<?xml version="1.0" encoding="iso-8859-1"?>
<!-- Generator: Adobe Illustrator 19.0.0, SVG Export Plug-In . SVG Version: 6.00 Build 0)  -->
<svg xmlns="http://www.w3.org/2000/svg" xmlns:xlink="http://www.w3.org/1999/xlink" version="1.1" id="Layer_1" x="0px" y="0px" viewBox="0 0 512 512" style="enable-background:new 0 0 512 512;" xml:space="preserve">
<path style="fill:#3E3B43;" d="M367.83,504.396H144.17c-17.844,0-32.444-14.6-32.444-32.444V40.048  c0-17.844,14.6-32.444,32.444-32.444h223.66c17.844,0,32.444,14.6,32.444,32.444v431.905  C400.273,489.796,385.674,504.396,367.83,504.396z"/>
<g>
	<path style="fill:#2F2D30;" d="M400.445,40.048c0-17.844-14.6-32.444-32.444-32.444h-223.66c-17.844,0-32.444,14.6-32.444,32.444   v44.846h288.547V40.048z"/>
	<path style="fill:#2F2D30;" d="M111.898,472.66c0,17.844,14.6,32.444,32.444,32.444h223.66c17.844,0,32.444-14.6,32.444-32.444   v-44.846H111.898V472.66z"/>
</g>
<path style="fill:#77757E;" d="M287.849,56.18h-63.356c-5.354,0-9.735-4.381-9.735-9.735l0,0c0-5.354,4.381-9.735,9.735-9.735  h63.356c5.354,0,9.735,4.381,9.735,9.735l0,0C297.585,51.799,293.204,56.18,287.849,56.18z"/>
<rect x="140.805" y="84.891" style="fill:#DFDFE2;" width="226.993" height="342.918"/>
<g>
	<path style="fill:#77757E;" d="M311.321,263.834H201.022c-7.782,0-14.091-6.308-14.091-14.091V139.444   c0-7.782,6.308-14.091,14.091-14.091h110.299c7.782,0,14.091,6.308,14.091,14.091v110.299   C325.412,257.526,319.103,263.834,311.321,263.834z"/>
	<rect x="186.936" y="293.067" style="fill:#77757E;" width="138.483" height="27.213"/>
	<rect x="186.936" y="350.553" style="fill:#77757E;" width="138.483" height="27.213"/>
</g>
<polygon style="opacity:0.26;fill:#FFFFFF;enable-background:new    ;" points="367.799,289.931 140.806,381.178 140.806,237.737   367.799,146.49 "/>
<path d="M367.83,0H144.17c-22.082,0-40.048,17.966-40.048,40.048v431.905c0,22.082,17.966,40.048,40.048,40.048h223.66  c22.082,0,40.048-17.966,40.048-40.048V40.048C407.877,17.966,389.912,0,367.83,0z M119.33,92.498h13.872v323.699H119.33V92.498z   M392.67,471.952c0,13.696-11.143,24.84-24.84,24.84H144.17c-13.696,0-24.84-11.143-24.84-24.84v-40.548h21.476h226.993h24.87  V471.952z M148.41,416.196V92.498h211.785v323.699H148.41z M392.67,416.196h-17.266V92.498h17.266V416.196z M392.67,77.29h-24.87  H140.806H119.33V40.048c0-13.696,11.143-24.84,24.84-24.84h223.66c13.696,0,24.84,11.143,24.84,24.84L392.67,77.29L392.67,77.29z"/>
<path d="M232.359,63.784h63.356c9.561,0,17.339-7.778,17.339-17.339s-7.778-17.339-17.339-17.339h-63.356  c-9.561,0-17.339,7.778-17.339,17.339C215.02,56.006,222.798,63.784,232.359,63.784z M232.359,44.314h63.356  c1.155,0,2.131,0.975,2.131,2.131c0,1.155-0.975,2.131-2.131,2.131h-63.356c-1.156,0-2.131-0.975-2.131-2.131  C230.228,45.29,231.204,44.314,232.359,44.314z"/>
<path d="M254.302,444.942c-9.561,0-17.339,7.778-17.339,17.339c0,9.561,7.778,17.339,17.339,17.339  c9.561,0,17.339-7.778,17.339-17.339C271.641,452.721,263.864,444.942,254.302,444.942z M254.302,464.412  c-1.155,0-2.131-0.975-2.131-2.131c0-1.155,0.975-2.131,2.131-2.131s2.131,0.975,2.131,2.131  C256.433,463.437,255.458,464.412,254.302,464.412z"/>
<path d="M173.193,444.942c-9.561,0-17.339,7.778-17.339,17.339c0,9.561,7.778,17.339,17.339,17.339  c9.561,0,17.339-7.778,17.339-17.339C190.532,452.721,182.755,444.942,173.193,444.942z M173.193,464.412  c-1.155,0-2.131-0.975-2.131-2.131c0-1.155,0.975-2.131,2.131-2.131c1.156,0,2.131,0.975,2.131,2.131  C175.324,463.437,174.349,464.412,173.193,464.412z"/>
<path d="M345.549,444.942c-9.561,0-17.339,7.778-17.339,17.339c0,9.561,7.778,17.339,17.339,17.339s17.339-7.778,17.339-17.339  C362.888,452.721,355.111,444.942,345.549,444.942z M345.549,464.412c-1.155,0-2.131-0.975-2.131-2.131  c0-1.155,0.975-2.131,2.131-2.131c1.156,0,2.131,0.975,2.131,2.131C347.68,463.437,346.705,464.412,345.549,464.412z"/>
<path d="M325.412,117.75h-138.48c-4.199,0-7.604,3.405-7.604,7.604v138.48c0,4.199,3.405,7.604,7.604,7.604h138.48  c4.199,0,7.604-3.405,7.604-7.604v-138.48C333.016,121.154,329.611,117.75,325.412,117.75z M317.808,256.23H194.536V132.958h123.272  V256.23z"/>
<path d="M325.412,285.462h-138.48c-4.199,0-7.604,3.405-7.604,7.604v27.213c0,4.199,3.405,7.604,7.604,7.604h138.48  c4.199,0,7.604-3.405,7.604-7.604v-27.213C333.016,288.866,329.611,285.462,325.412,285.462z M317.808,312.674H194.536v-12.005  h123.272V312.674z"/>
<path d="M325.412,342.946h-138.48c-4.199,0-7.604,3.405-7.604,7.604v27.213c0,4.199,3.405,7.604,7.604,7.604h138.48  c4.199,0,7.604-3.405,7.604-7.604V350.55C333.016,346.35,329.611,342.946,325.412,342.946z M317.808,370.159H194.536v-12.005  h123.272V370.159z"/>
<g>
</g>
<g>
</g>
<g>
</g>
<g>
</g>
<g>
</g>
<g>
</g>
<g>
</g>
<g>
</g>
<g>
</g>
<g>
</g>
<g>
</g>
<g>
</g>
<g>
</g>
<g>
</g>
<g>
</g>
</svg>
