<?xml version="1.0" encoding="iso-8859-1"?>
<!-- Generator: Adobe Illustrator 19.0.0, SVG Export Plug-In . SVG Version: 6.00 Build 0)  -->
<svg xmlns="http://www.w3.org/2000/svg" xmlns:xlink="http://www.w3.org/1999/xlink" version="1.1" id="Layer_1" x="0px" y="0px" viewBox="0 0 512 512" style="enable-background:new 0 0 512 512;" xml:space="preserve">
<rect x="225.183" y="89.773" transform="matrix(-0.7071 -0.7071 0.7071 -0.7071 251.9304 619.721)" style="fill:#D7D5D9;" width="58.261" height="335.822"/>
<path style="fill:#FF3F62;" d="M299.837,253.358l-45.692,45.692c-8.722,8.722-8.722,22.996,0,31.718L403.126,479.75  c8.722,8.722,22.996,8.722,31.718,0l45.692-45.692c8.722-8.722,8.722-22.996,0-31.718L331.555,253.358  C322.832,244.636,308.559,244.636,299.837,253.358z"/>
<polygon style="fill:#D7D5D9;" points="87.387,26.435 27.988,85.834 62.93,120.776 77.492,106.215 227.88,257.387 257.388,227.879   107.001,76.707 122.329,61.378 "/>
<g>
	
		<rect x="325.58" y="131.356" transform="matrix(-0.7071 -0.7071 0.7071 -0.7071 494.3098 519.3247)" style="opacity:0.3;fill:#3E3B43;enable-background:new    ;" width="58.261" height="51.864"/>
	
		<rect x="132.778" y="328.935" transform="matrix(-0.7071 -0.7071 0.7071 -0.7071 28.8518 712.1072)" style="opacity:0.3;fill:#3E3B43;enable-background:new    ;" width="58.261" height="42.286"/>
</g>
<g>
	<path style="fill:#77757E;" d="M481.358,79.964l-48.821,48.821l-49.322-49.322l48.821-48.821l-11.77-11.772   c-14.997-14.997-39.312-14.997-54.309,0l-43.334,43.334c-14.997,14.997-14.997,39.312,0,54.309l72.863,72.863   c14.997,14.997,39.312,14.997,54.309,0l43.334-43.334c14.997-14.997,14.997-39.312,0-54.309L481.358,79.964z"/>
	<path style="fill:#77757E;" d="M30.643,432.035l48.821-48.821l49.322,49.322l-48.821,48.821l11.77,11.77   c14.997,14.997,39.312,14.997,54.309,0l43.334-43.334c14.997-14.997,14.997-39.312,0-54.309l-72.863-72.863   c-14.997-14.997-39.312-14.997-54.309,0l-43.334,43.335c-14.997,14.997-14.997,39.312,0,54.309L30.643,432.035z"/>
</g>
<path style="fill:#C70024;" d="M299.837,253.358l-45.692,45.692c-8.722,8.722-8.722,22.996,0,31.718l16.415,16.415l77.41-77.41  l-16.415-16.415C322.832,244.636,308.559,244.636,299.837,253.358z"/>
<g>
	
		<rect x="208.475" y="221.175" transform="matrix(-0.7071 0.7071 -0.7071 -0.7071 553.4148 229.3288)" style="opacity:0.3;fill:#3E3B43;enable-background:new    ;" width="41.475" height="16.21"/>
	
		<rect x="28.5" y="50.866" transform="matrix(-0.7071 0.7071 -0.7071 -0.7071 169.0792 67.8821)" style="opacity:0.07;fill:#3E3B43;enable-background:new    ;" width="83.961" height="36.186"/>
</g>
<path style="fill:#FF728B;" d="M422.501,436.014L320.62,334.133c-3.948-3.948-3.948-10.35,0-14.299l0,0  c3.948-3.948,10.35-3.948,14.299,0L436.8,421.715c3.948,3.948,3.948,10.35,0,14.299l0,0  C432.852,439.963,426.45,439.963,422.501,436.014z"/>
<path d="M390.078,194.784c8.698,8.697,20.261,13.486,32.561,13.486s23.863-4.789,32.56-13.486l43.336-43.334  c17.953-17.954,17.953-47.168,0-65.122l-11.77-11.77c-2.987-2.985-7.827-2.985-10.813,0l-43.415,43.416l-38.509-38.509  l43.416-43.414c2.986-2.986,2.986-7.827,0-10.812l-11.77-11.773c-17.955-17.953-47.167-17.951-65.122,0l-43.335,43.334  c-17.953,17.954-17.953,47.169,0,65.123l10.427,10.427l-77.093,77.093L117.813,76.707l9.922-9.921  c1.434-1.434,2.24-3.378,2.24-5.407s-0.805-3.972-2.239-5.407L92.794,21.028c-2.986-2.984-7.826-2.986-10.813,0l-59.4,59.399  c-1.433,1.434-2.239,3.378-2.239,5.407c0,2.029,0.805,3.972,2.239,5.407l34.942,34.942c2.987,2.985,7.827,2.985,10.813,0  l9.155-9.156l132.736,132.735l-77.878,77.878l-10.427-10.427c-17.955-17.953-47.167-17.951-65.122,0l-43.334,43.335  c-17.953,17.954-17.953,47.168,0,65.122l11.77,11.771c2.987,2.984,7.827,2.986,10.813,0l43.415-43.415l38.508,38.508l-43.416,43.415  c-1.433,1.434-2.239,3.378-2.239,5.407s0.805,3.973,2.24,5.407l11.77,11.77c8.978,8.977,20.769,13.465,32.56,13.465  c11.792,0,23.584-4.488,32.561-13.465l43.334-43.334c17.953-17.954,17.953-47.169,0-65.123l-10.427-10.427l56.685-56.685  c1.362,4.954,3.975,9.492,7.694,13.21l148.982,148.982c5.863,5.862,13.564,8.793,21.265,8.793s15.402-2.931,21.266-8.793  l45.692-45.693c11.726-11.726,11.726-30.806,0-42.531L336.962,247.951c-3.797-3.797-8.368-6.357-13.209-7.695l55.899-55.899  L390.078,194.784z M328.03,67.613l43.334-43.334c5.996-5.997,13.871-8.994,21.748-8.994c7.875,0,15.751,2.998,21.747,8.993  l6.364,6.365l-43.416,43.414c-1.433,1.434-2.239,3.378-2.239,5.407s0.805,3.972,2.239,5.407l49.323,49.323  c2.987,2.985,7.827,2.985,10.813,0l43.415-43.416l6.363,6.364c11.993,11.992,11.993,31.503,0,43.495l-43.336,43.336  c-5.808,5.809-13.531,9.008-21.747,9.008c-8.216,0-15.939-3.2-21.748-9.009l-15.833-15.833l-41.196-41.196l-15.833-15.833  C316.037,99.116,316.037,79.603,328.03,67.613z M82.899,100.808c-1.493-1.492-3.451-2.239-5.407-2.239  c-1.956,0-3.914,0.746-5.407,2.239l-9.155,9.156L38.8,85.833l48.587-48.586l24.13,24.13l-9.922,9.921  c-1.434,1.434-2.24,3.378-2.24,5.407c0,2.029,0.805,3.972,2.239,5.407l138.142,138.141l-18.696,18.696L82.899,100.808z   M183.971,444.385l-43.334,43.334c-11.991,11.994-31.503,11.992-43.496,0l-6.364-6.363l43.416-43.415  c2.986-2.987,2.986-7.827,0-10.813l-49.322-49.322c-2.986-2.984-7.826-2.986-10.813,0l-43.415,43.415l-6.363-6.364  c-11.993-11.992-11.993-31.503,0-43.495l43.334-43.334c11.991-11.992,31.504-11.993,43.495,0l72.864,72.863  C195.964,412.882,195.964,432.395,183.971,444.385z M326.148,258.764L475.13,407.747c5.764,5.763,5.764,15.141,0,20.904  l-45.691,45.693c-5.763,5.763-15.143,5.763-20.906,0L259.55,325.362c-2.775-2.775-4.303-6.486-4.303-10.451  c0-3.967,1.528-7.677,4.304-10.453l45.692-45.692C311.008,253,320.387,253,326.148,258.764z M294.451,247.932  c-0.007,0.007-0.013,0.012-0.02,0.019l-22.846,22.847l-98.04,98.039l-30.383-30.382l83.275-83.275  c0.003-0.003,0.007-0.006,0.01-0.009l29.508-29.508c0.003-0.003,0.006-0.007,0.009-0.01l82.491-82.49l30.383,30.383L294.451,247.932  z"/>
<g>
</g>
<g>
</g>
<g>
</g>
<g>
</g>
<g>
</g>
<g>
</g>
<g>
</g>
<g>
</g>
<g>
</g>
<g>
</g>
<g>
</g>
<g>
</g>
<g>
</g>
<g>
</g>
<g>
</g>
</svg>
