<?xml version="1.0" encoding="iso-8859-1"?>
<!-- Generator: Adobe Illustrator 19.0.0, SVG Export Plug-In . SVG Version: 6.00 Build 0)  -->
<svg xmlns="http://www.w3.org/2000/svg" xmlns:xlink="http://www.w3.org/1999/xlink" version="1.1" id="Layer_1" x="0px" y="0px" viewBox="0 0 512.001 512.001" style="enable-background:new 0 0 512.001 512.001;" xml:space="preserve">
<path style="fill:#85BB04;" d="M232.077,484.887c7.857,0.853,15.84,1.291,23.923,1.291c121.085,0,219.243-98.159,219.243-219.243  c0-117.054-91.732-212.683-207.23-218.92h-24.029C128.488,54.251,36.757,149.879,36.757,266.933  c0,96.9,62.862,179.117,150.031,208.095L232.077,484.887z"/>
<path style="fill:#9CDD05;" d="M331.239,128.239c-19.055-10.359-40.481-16.905-63.258-18.616h-23.963  c-81.529,6.123-145.775,74.214-145.775,157.31c0,87.127,70.631,157.757,157.757,157.757s157.757-70.631,157.757-157.757  c0-43.19-17.356-82.327-45.475-110.815L331.239,128.239z"/>
<path style="fill:#C2FB3B;" d="M193.148,340.326c16.846,14.588,38.819,23.414,62.852,23.414c53.052,0,96.06-43.007,96.06-96.06  c0-48.984-36.663-89.403-84.045-95.316h-24.029c-47.382,5.912-84.046,46.332-84.046,95.316c0,11.401,1.986,22.338,5.632,32.485  L193.148,340.326z"/>
<path style="fill:#EBFEC0;" d="M268.015,235.94c12.416,4.816,21.217,16.877,21.217,30.994c0,18.353-14.878,33.231-33.231,33.231  s-33.231-14.878-33.231-33.231c0-13.765,8.369-25.575,20.296-30.62L268.015,235.94z"/>
<path style="fill:#3E3B43;" d="M257.617,7.604h-3.232c-5.719,0-10.398,4.679-10.398,10.398v246.455  c0,5.719,4.679,10.398,10.398,10.398h3.232c5.719,0,10.398-4.679,10.398-10.398V18.002C268.015,12.283,263.336,7.604,257.617,7.604z  "/>
<g>
	<circle style="fill:#D7FC7E;" cx="350.472" cy="141.231" r="23.21"/>
	<circle style="fill:#D7FC7E;" cx="209.16" cy="481.189" r="23.21"/>
	<circle style="fill:#D7FC7E;" cx="177.294" cy="323.371" r="23.21"/>
</g>
<g style="opacity:0.2;">
	<path style="fill:#3E3B43;" d="M266.399,274.855h3.232c5.719,0,10.398-4.679,10.398-10.398V49.003   c-3.975-0.433-7.978-0.772-12.014-0.991h-12.014v216.443C256.001,270.175,260.679,274.855,266.399,274.855z"/>
</g>
<path d="M275.62,40.936V18.002C275.62,8.075,267.544,0,257.618,0h-3.233c-9.927,0-18.002,8.075-18.002,18.002v22.934  C119.605,50.924,29.153,148.826,29.153,266.933c0,95.787,59.704,180.663,149.223,213.208c-0.012,0.348-0.026,0.694-0.026,1.045  c0,16.991,13.823,30.814,30.814,30.814c12.792,0,23.785-7.835,28.439-18.957c6.107,0.49,12.271,0.739,18.398,0.739  c60.593,0,117.559-23.596,160.406-66.442c42.846-42.846,66.441-99.812,66.441-160.405C482.848,148.826,392.396,50.925,275.62,40.936  z M350.475,156.835c-8.605,0-15.606-7.001-15.606-15.606c0-8.606,7.001-15.607,15.606-15.607c8.606,0,15.607,7.001,15.607,15.607  C366.082,149.835,359.081,156.835,350.475,156.835z M350.475,172.043c6.42,0,12.384-1.975,17.325-5.347  c24.786,27.586,38.354,62.905,38.354,100.236c0,82.794-67.359,150.153-150.154,150.153s-150.153-67.359-150.153-150.153  c0-75.347,56.7-139.197,130.535-148.873v47.838c-48.358,9.261-84.045,51.864-84.045,101.783c0,11.002,1.73,21.799,5.106,32.152  c-6.699,5.657-10.964,14.109-10.964,23.543c0,16.991,13.823,30.815,30.814,30.815c5.7,0,11.04-1.562,15.626-4.271  c18.042,13.846,40.205,21.427,63.081,21.427c57.16,0,103.664-46.504,103.664-103.664c0-49.918-35.688-92.522-84.045-101.783V118.05  c15.892,2.062,31.165,6.618,45.578,13.589c-0.993,3.02-1.536,6.243-1.536,9.591C319.661,158.221,333.484,172.043,350.475,172.043z   M177.293,307.769c8.606,0,15.606,7.001,15.606,15.606c0,8.606-7.001,15.607-15.606,15.607c-8.606,0-15.606-7.001-15.606-15.607  C161.687,314.77,168.688,307.769,177.293,307.769z M177.293,292.561c-2.058,0-4.068,0.207-6.013,0.593  c-2.471-8.227-3.735-16.772-3.735-25.473c0-41.607,29.043-77.269,68.837-86.266v49.724c-13.003,7.118-21.217,20.744-21.217,35.796  c0,22.516,18.318,40.834,40.835,40.834s40.835-18.318,40.835-40.834c0-14.926-8.344-28.712-21.217-35.808v-49.713  c39.795,8.997,68.837,44.661,68.837,86.267c0,48.775-39.682,88.456-88.456,88.456c-18.842,0-37.117-6.021-52.208-17.061  c2.736-4.602,4.315-9.969,4.315-15.702C208.108,306.383,194.285,292.561,177.293,292.561z M275.62,264.457v-13.946  c3.779,4.533,6.009,10.322,6.009,16.423c0,14.131-11.497,25.626-25.627,25.626c-14.13,0-25.627-11.496-25.627-25.626  c0-6.173,2.209-11.96,6.009-16.482v14.005c0,9.927,8.075,18.002,18.002,18.002h3.233C267.544,282.459,275.62,274.383,275.62,264.457  z M254.384,15.208h3.233c1.515,0,2.794,1.279,2.794,2.794v90.959c-0.003,0.031-0.009,0.063-0.012,0.094  c-0.03,0.401-0.019,0.795,0.012,1.183v154.217c0,1.515-1.279,2.794-2.794,2.794h-3.233c-1.515,0-2.794-1.279-2.794-2.794V110.237  c0.031-0.388,0.042-0.782,0.012-1.182c-0.002-0.031-0.009-0.063-0.012-0.094V18.002C251.59,16.487,252.87,15.208,254.384,15.208z   M209.164,496.792c-8.606,0-15.606-7.001-15.606-15.606c0-8.606,7.001-15.606,15.606-15.606c8.606,0,15.606,7.001,15.606,15.606  C224.771,489.791,217.77,496.792,209.164,496.792z M256.001,478.573c-5.393,0-10.813-0.217-16.192-0.624  c-1.623-15.476-14.746-27.578-30.644-27.578c-11.27,0-21.141,6.085-26.514,15.139C99.649,434.901,44.361,355.969,44.361,266.933  c0-109.75,83.711-200.796,192.021-210.728v46.527c-38.776,4.585-74.555,22.701-101.387,51.499  c-28.603,30.696-44.355,70.721-44.355,112.702c0,91.181,74.181,165.361,165.361,165.361s165.362-74.18,165.362-165.361  c0-41.712-15.39-81.137-43.448-111.707c2.153-4.203,3.376-8.958,3.376-13.996c0-16.991-13.824-30.815-30.815-30.815  c-8.129,0-15.528,3.169-21.041,8.332c-16.949-8.427-34.996-13.796-53.815-16.01V56.205  c108.31,9.933,192.021,100.979,192.021,210.728C467.64,383.632,372.699,478.573,256.001,478.573z"/>
<g>
</g>
<g>
</g>
<g>
</g>
<g>
</g>
<g>
</g>
<g>
</g>
<g>
</g>
<g>
</g>
<g>
</g>
<g>
</g>
<g>
</g>
<g>
</g>
<g>
</g>
<g>
</g>
<g>
</g>
</svg>
