<?xml version="1.0" encoding="iso-8859-1"?>
<!-- Generator: Adobe Illustrator 19.0.0, SVG Export Plug-In . SVG Version: 6.00 Build 0)  -->
<svg xmlns="http://www.w3.org/2000/svg" xmlns:xlink="http://www.w3.org/1999/xlink" version="1.1" id="Layer_1" x="0px" y="0px" viewBox="0 0 512.001 512.001" style="enable-background:new 0 0 512.001 512.001;" xml:space="preserve">
<rect x="168.619" y="197.606" style="fill:#C6C3CB;" width="62.095" height="55.793"/>
<rect x="168.619" y="197.606" style="fill:#77757E;" width="62.095" height="43.871"/>
<rect x="168.619" y="7.779" style="fill:#3E3B43;" width="62.095" height="45.514"/>
<g>
	<path style="fill:#ACAAB1;" d="M248.068,167.7c21.071,4.808,41.077,15.466,57.424,31.979   c45.361,45.82,45.228,120.416-0.288,166.081l33.356,30.144c62.067-63.934,60.864-166.754-2.612-229.29   c-24.909-24.54-55.76-39.419-87.878-44.657L248.068,167.7z"/>
	<path style="fill:#ACAAB1;" d="M248.072,54.693v162.342c0,5.475-4.479,9.955-9.955,9.955h-77.281c-5.475,0-9.955-4.479-9.955-9.955   V54.693c0-12.852,10.516-23.368,23.368-23.368h50.457C237.556,31.326,248.072,41.841,248.072,54.693z"/>
</g>
<path style="fill:#57545C;" d="M357.057,468.668H170.465c-7.675,0-13.954-6.279-13.954-13.954v-7.557  c0-19.185,62.208-93.021,81.393-93.021h51.713c19.185,0,81.393,73.836,81.393,93.021v7.557  C371.01,462.39,364.731,468.668,357.057,468.668z"/>
<g>
	<circle style="fill:#2F2D30;" cx="263.755" cy="403.84" r="18.606"/>
	<rect x="132.837" y="465.135" style="fill:#2F2D30;" width="262.561" height="37.42"/>
</g>
<rect x="116.606" y="319.282" style="fill:#57545C;" width="177.143" height="40.469"/>
<g style="opacity:0.33;">
	<path style="fill:#3E3B43;" d="M248.072,54.693c0-12.852-10.516-23.368-23.368-23.368h-50.457   c-12.852,0-23.368,10.516-23.368,23.368v23.984h97.191V54.693H248.072z"/>
</g>
<g style="opacity:0.33;">
	<path style="fill:#57545C;" d="M303.614,368.487l33.356,30.144c8.526-8.784,15.852-18.303,21.993-28.35l-36.322-26.878   C317.568,352.393,311.23,360.847,303.614,368.487z"/>
</g>
<rect x="116.606" y="343.406" style="fill:#2F2D30;" width="177.143" height="16.339"/>
<g style="opacity:0.43;">
	<path style="fill:#2F2D30;" d="M159.802,437.174c-1.874,4.062-2.935,7.49-2.935,9.986v7.557c0,7.675,6.279,13.954,13.954,13.954   h186.592c7.675,0,13.954-6.279,13.954-13.954v-7.557c0-2.495-1.061-5.923-2.935-9.986H159.802z"/>
</g>
<path style="fill:#57545C;" d="M248.075,121.957l-0.003,45.743c7.889,1.8,15.63,4.421,23.084,7.861v-48.08  C263.58,125.077,255.866,123.227,248.075,121.957z"/>
<path style="opacity:0.43;fill:#2F2D30;enable-background:new    ;" d="M368.667,437.174h-0.356  c-12.531-27.167-61.77-83.035-78.458-83.035h-29.04c16.689,0,65.928,55.868,78.458,83.035h0.356c1.874,4.062,2.935,7.49,2.935,9.986  v7.557c0,7.675-6.279,13.954-13.954,13.954h28.684h0.001h0.355c7.675,0,13.954-6.279,13.954-13.954v-7.557  C371.602,444.663,370.541,441.236,368.667,437.174z"/>
<path style="opacity:0.2;fill:#3E3B43;enable-background:new    ;" d="M247.341,46.68c-0.921-2.503-2.259-4.807-3.93-6.829  c-0.716-0.866-1.492-1.681-2.323-2.436c-0.277-0.252-0.56-0.497-0.848-0.735c-1.733-1.431-3.674-2.62-5.769-3.51  c-0.987-0.419-2.01-0.769-3.061-1.051V7.779H201.03v24.341c1.05,0.281,2.073,0.631,3.061,1.051c2.095,0.89,4.036,2.077,5.769,3.51  c0.288,0.239,0.571,0.484,0.848,0.735c0.831,0.756,1.608,1.57,2.323,2.436c1.67,2.021,3.009,4.326,3.93,6.829  s1.424,5.201,1.424,8.013v23.985v138.358c0,5.475-4.479,9.955-9.955,9.955h-7.399v14.487V253.4h30.381v-11.923v-14.487h7.399  c5.475,0,9.955-4.479,9.955-9.955V78.677V54.693C248.765,51.882,248.262,49.182,247.341,46.68z"/>
<rect x="277.155" y="319.282" style="fill:#2F2D30;" width="16.59" height="40.469"/>
<path d="M263.76,377.457c-14.548,0-26.384,11.836-26.384,26.385c0,14.548,11.836,26.384,26.384,26.384  c14.548,0,26.384-11.836,26.384-26.384C290.145,389.293,278.309,377.457,263.76,377.457z M263.76,414.67  c-5.97,0-10.827-4.858-10.827-10.827c0-5.971,4.857-10.828,10.827-10.828c5.97,0,10.827,4.858,10.827,10.828  C274.588,409.813,269.731,414.67,263.76,414.67z"/>
<path d="M395.398,457.36h-23.933c0.449-1.701,0.713-3.475,0.713-5.315v-7.09c0-11.964-15.104-32.983-25.628-46.174  c62.543-67.111,60.531-173.008-5.139-237.709c-23.704-23.352-53.17-39.033-85.56-45.6V78.698c0-0.007,0.001-0.013,0.001-0.013  c0-0.013-0.001-0.02-0.001-0.02V54.693c0-12.224-7.082-22.82-17.354-27.917V7.779c0-4.297-3.483-7.779-7.779-7.779h-62.095  c-4.296,0-7.779,3.482-7.779,7.779v18.805c-10.482,5.019-17.741,15.731-17.741,28.11v162.341c0,9.778,7.955,17.734,17.734,17.734  h0.007V253.4c0,4.297,3.483,7.779,7.779,7.779h62.095c4.296,0,7.779-3.482,7.779-7.779V234.75  c9.602-0.204,17.354-8.065,17.354-17.714v-39.107c16.593,5.397,31.701,14.683,44.116,27.224  c41.045,41.46,42.249,107.973,3.702,150.916c-0.719-0.476-1.431-0.922-2.14-1.352v-35.436c0-4.297-3.483-7.779-7.779-7.779H116.604  c-4.296,0-7.779,3.482-7.779,7.779v38.39c0,4.297,3.483,7.779,7.779,7.779h95.299c-8.77,7.797-17.215,17.04-23.24,24.041  c-7.817,9.082-33.319,39.924-33.319,55.467v7.09c0,1.84,0.263,3.614,0.713,5.315h-23.221c-4.296,0-7.779,3.482-7.779,7.779v39.083  c0,4.297,3.483,7.779,7.779,7.779h262.561c4.296,0,7.779-3.482,7.779-7.779v-39.083C403.176,460.842,399.694,457.36,395.398,457.36z   M222.939,15.557v7.99H176.4v-7.99H222.939z M171.091,39.427h56.769c7.088,1.463,12.432,7.753,12.432,15.268v16.204h-81.634V54.693  C158.659,47.179,164.003,40.89,171.091,39.427z M176.4,245.622v-10.854h46.538v10.854H176.4z M238.116,219.211h-5.998  c-0.455-0.083-0.922-0.133-1.402-0.133h-62.095c-0.479,0-0.946,0.05-1.402,0.133h-6.385c-1.18,0-2.177-0.997-2.177-2.177V86.456  h81.634v81.047c-0.001,0.037,0,0.074,0,0.111v49.421C240.293,218.215,239.296,219.211,238.116,219.211z M311.022,194.207  c-15.358-15.513-34.331-26.668-55.172-32.531v-30.268c28.204,6.318,53.862,20.274,74.642,40.746  c59.218,58.343,61.477,153.544,5.984,214.596c-5.698-6.481-13.002-14.288-20.567-21.047  C359.222,316.669,357.63,241.286,311.022,194.207z M124.383,349.889v-22.833h161.588v22.833h-46.472L124.383,349.889  L124.383,349.889z M170.901,452.044v-7.09c0-4.383,9.289-21.695,29.225-44.937c19.934-23.239,35.29-34.368,39.371-34.571h48.505  c4.102,0.203,19.458,11.332,39.39,34.571c19.937,23.242,29.225,40.555,29.225,44.937v7.09c0,2.881-2.434,5.315-5.315,5.315H176.217  C173.336,457.36,170.901,454.926,170.901,452.044z M387.619,496.443H140.615v-23.526h35.603h175.087h36.314V496.443z"/>
<g>
</g>
<g>
</g>
<g>
</g>
<g>
</g>
<g>
</g>
<g>
</g>
<g>
</g>
<g>
</g>
<g>
</g>
<g>
</g>
<g>
</g>
<g>
</g>
<g>
</g>
<g>
</g>
<g>
</g>
</svg>
