<?xml version="1.0" encoding="iso-8859-1"?>
<!-- Generator: Adobe Illustrator 19.0.0, SVG Export Plug-In . SVG Version: 6.00 Build 0)  -->
<svg xmlns="http://www.w3.org/2000/svg" xmlns:xlink="http://www.w3.org/1999/xlink" version="1.1" id="Layer_1" x="0px" y="0px" viewBox="0 0 512.001 512.001" style="enable-background:new 0 0 512.001 512.001;" xml:space="preserve">
<path style="fill:#315591;" d="M341.846,272.47l61.519,73.61c1.731,2.071,2.153,4.938,1.093,7.42l-6.728,15.747  c-1.557,3.643-5.773,5.335-9.417,3.778l-65.101-27.35H188.587l-64.898,27.35c-3.644,1.557-7.86-0.135-9.417-3.778l-6.73-15.747  c-1.06-2.482-0.638-5.349,1.093-7.42l61.519-73.61H341.846z"/>
<polygon style="opacity:0.39;fill:#2F2D30;enable-background:new    ;" points="363.89,298.845 341.846,272.47 170.154,272.47   146.869,300.331 146.869,363.255 188.587,345.674 323.21,345.674 363.89,362.764 "/>
<path style="fill:#4675CF;" d="M188.587,345.674c5.818,18.316,12.257,33.933,18.818,43.785c1.979,2.973,5.318,4.695,8.89,4.695  h79.209c3.571,0,6.91-1.722,8.89-4.695c6.562-9.852,13-25.469,18.819-43.785H188.587z"/>
<path style="fill:#4E8FE3;" d="M346.52,210.102c0-57.336-23.813-109.065-47.027-145.91h-87.191  c-23.214,36.844-47.027,88.574-47.027,145.91c0,37.102,9.982,93.615,23.311,135.572H323.21  C336.539,303.717,346.52,247.203,346.52,210.102z"/>
<circle style="fill:#FFF5CC;" cx="255.996" cy="137.889" r="47.949"/>
<path style="fill:#4675CF;" d="M255.898,7.589c0,0-21.527,21.576-43.596,56.603h87.191C277.425,29.164,255.898,7.589,255.898,7.589z  "/>
<circle style="fill:#FFCD00;" cx="255.996" cy="137.889" r="23.226"/>
<path style="opacity:0.28;fill:#FFFFFF;enable-background:new    ;" d="M183.92,329.921l158.989-158.989  c-6.848-37.877-22.523-71.957-38.722-99.076L165.276,210.767C165.378,243.375,173.066,290.634,183.92,329.921z"/>
<path style="opacity:0.15;fill:#2F2D30;enable-background:new    ;" d="M299.494,64.192c-22.068-35.028-43.596-56.603-43.596-56.603  s-7.311,7.334-17.773,20.371c7.497,9.343,16.61,21.61,25.822,36.233c23.214,36.844,47.027,88.574,47.027,145.91  c0,37.102-9.982,93.615-23.311,135.572c-5.818,18.316-12.257,33.933-18.819,43.785c-1.979,2.973-5.318,4.695-8.889,4.695h35.547  c3.571,0,6.91-1.722,8.889-4.695c6.562-9.852,13-25.469,18.819-43.785c13.328-41.956,23.311-98.471,23.311-135.572  C346.52,152.766,322.707,101.036,299.494,64.192z"/>
<path d="M409.187,341.213l-60.427-72.303c3.398-21.557,5.348-42.122,5.348-58.808c0-60.717-26.209-115.059-48.194-149.954  c-22.264-35.337-43.74-57.013-44.645-57.918C259.846,0.802,257.914,0,255.898,0s-3.948,0.802-5.372,2.229  c-0.904,0.906-22.381,22.58-44.645,57.918c-21.985,34.896-48.194,89.239-48.194,149.954c0,16.737,1.964,37.38,5.382,59.012  l-60.255,72.098c-3.581,4.282-4.443,10.133-2.248,15.269l6.729,15.747c1.55,3.626,4.419,6.431,8.078,7.9  c1.783,0.715,3.648,1.072,5.508,1.072c1.96,0,3.913-0.396,5.755-1.183l57.321-24.157c5.645,16.492,11.396,29.191,17.133,37.805  c3.369,5.058,9.053,8.077,15.205,8.077h79.209c6.153,0,11.836-3.019,15.205-8.077c5.738-8.616,11.49-21.318,17.135-37.813  l57.486,24.15c1.887,0.806,3.849,1.188,5.781,1.188c5.736,0,11.203-3.362,13.597-8.961l6.728-15.747  C413.629,351.346,412.767,345.496,409.187,341.213z M255.898,18.722c6.316,7.036,17.474,20.206,29.541,37.881h-59.082  C238.425,38.928,249.582,25.758,255.898,18.722z M216.519,71.78h78.758c20.426,33.267,43.655,83.22,43.655,138.321  c0,33.886-8.868,86.783-21.316,127.984H194.18c-12.447-41.203-21.316-94.1-21.316-127.984  C172.864,155.001,196.092,105.049,216.519,71.78z M121.088,365.884l-6.467-15.134l51.884-62.082  c3.481,18.013,7.842,36.101,12.81,52.678L121.088,365.884z M298.076,385.252c-0.548,0.823-1.51,1.313-2.573,1.313h-79.209  c-1.063,0-2.026-0.491-2.573-1.313c-4.697-7.052-9.685-17.999-14.601-31.989h113.558  C307.761,367.252,302.773,378.199,298.076,385.252z M390.912,365.884l-58.429-24.546c4.985-16.635,9.359-34.792,12.846-52.868  l52.05,62.281L390.912,365.884z"/>
<path d="M256,168.697c16.991,0,30.814-13.823,30.814-30.814S272.991,107.068,256,107.068s-30.815,13.823-30.815,30.814  S239.008,168.697,256,168.697z M256,122.245c8.623,0,15.637,7.016,15.637,15.637c0,8.622-7.015,15.637-15.637,15.637  c-8.623,0-15.638-7.016-15.638-15.637C240.362,129.261,247.377,122.245,256,122.245z"/>
<path d="M251.789,193.26c1.438,0.109,2.872,0.163,4.299,0.163c13.253,0,25.932-4.681,36.091-13.405  c11.255-9.664,18.072-23.132,19.197-37.923c1.124-14.791-3.578-29.135-13.241-40.389s-23.132-18.072-37.923-19.197  c-14.791-1.124-29.135,3.577-40.39,13.241c-11.254,9.664-18.072,23.132-19.197,37.923c-1.124,14.791,3.578,29.135,13.241,40.389  C223.529,185.317,236.998,192.135,251.789,193.26z M215.757,134.823c0.818-10.749,5.772-20.537,13.951-27.56  c7.383-6.34,16.596-9.742,26.227-9.742c1.037,0,2.08,0.039,3.124,0.119c10.749,0.818,20.537,5.771,27.56,13.95  c7.023,8.179,10.441,18.603,9.623,29.352c-0.818,10.749-5.772,20.537-13.951,27.56c-8.178,7.022-18.601,10.435-29.351,9.623  c-10.749-0.818-20.537-5.771-27.56-13.951C218.357,155.997,214.939,145.572,215.757,134.823z"/>
<path d="M289.78,411.353c-4.191,0-7.589,3.397-7.589,7.589v85.471c0,4.192,3.398,7.589,7.589,7.589s7.589-3.397,7.589-7.589v-85.471  C297.369,414.749,293.971,411.353,289.78,411.353z"/>
<path d="M255.392,411.353c-4.191,0-7.589,3.397-7.589,7.589v50.724c0,4.192,3.398,7.589,7.589,7.589s7.589-3.397,7.589-7.589  v-50.724C262.981,414.749,259.583,411.353,255.392,411.353z"/>
<path d="M221.003,411.353c-4.191,0-7.589,3.397-7.589,7.589v85.471c0,4.192,3.398,7.589,7.589,7.589s7.589-3.397,7.589-7.589  v-85.471C228.592,414.749,225.194,411.353,221.003,411.353z"/>
<g>
</g>
<g>
</g>
<g>
</g>
<g>
</g>
<g>
</g>
<g>
</g>
<g>
</g>
<g>
</g>
<g>
</g>
<g>
</g>
<g>
</g>
<g>
</g>
<g>
</g>
<g>
</g>
<g>
</g>
</svg>
