<?xml version="1.0" encoding="iso-8859-1"?>
<!-- Generator: Adobe Illustrator 19.0.0, SVG Export Plug-In . SVG Version: 6.00 Build 0)  -->
<svg xmlns="http://www.w3.org/2000/svg" xmlns:xlink="http://www.w3.org/1999/xlink" version="1.1" id="Layer_1" x="0px" y="0px" viewBox="0 0 511.998 511.998" style="enable-background:new 0 0 511.998 511.998;" xml:space="preserve">
<g>
	<rect x="390.724" y="100.538" style="fill:#57545C;" width="45.447" height="94.632"/>
	<rect x="397.89" y="267.508" style="fill:#57545C;" width="38.279" height="44.271"/>
	<rect x="397.89" y="338.062" style="fill:#57545C;" width="38.279" height="44.271"/>
	<rect x="397.89" y="408.615" style="fill:#57545C;" width="38.279" height="44.271"/>
</g>
<polygon style="fill:#D7D5D9;" points="75.824,10.565 75.824,280.689 139.456,280.689 139.456,504.44 412.195,504.44   412.195,10.565 336.872,10.565 304.56,42.878 197.781,42.878 162.464,7.561 "/>
<g style="opacity:0.2;">
	<rect x="75.823" y="245.596" style="fill:#5D5D5D;" width="30.338" height="35.1"/>
	<polygon style="fill:#5D5D5D;" points="378.905,10.569 378.905,469.344 139.456,469.344 139.456,504.444 412.195,504.444    412.195,10.569  "/>
</g>
<g>
	<rect x="75.823" y="223.211" style="fill:#57545C;" width="70.481" height="24.442"/>
	<rect x="75.823" y="173.833" style="fill:#57545C;" width="70.481" height="24.442"/>
	<rect x="75.823" y="124.466" style="fill:#57545C;" width="70.481" height="24.442"/>
	<rect x="75.823" y="75.089" style="fill:#57545C;" width="70.481" height="24.442"/>
</g>
<g>
	<circle style="fill:#FFF5CC;" cx="194.313" cy="111.494" r="12.469"/>
	<circle style="fill:#FFF5CC;" cx="194.313" cy="161.88" r="12.469"/>
	<circle style="fill:#FFF5CC;" cx="194.313" cy="212.275" r="12.469"/>
</g>
<circle style="fill:#FFCD00;" cx="248.841" cy="316.976" r="12.469"/>
<rect x="275.48" y="81.741" style="fill:#FFF5CC;" width="21.277" height="21.277"/>
<rect x="264.01" y="103.018" style="fill:#FFDA44;" width="103.734" height="103.734"/>
<g>
	<rect x="296.091" y="135.099" style="fill:#FFF5CC;" width="39.57" height="39.57"/>
	<rect x="315.796" y="81.741" style="fill:#FFF5CC;" width="21.277" height="21.277"/>
	<rect x="295.638" y="206.752" style="fill:#FFF5CC;" width="21.277" height="21.277"/>
	<rect x="335.954" y="206.752" style="fill:#FFF5CC;" width="21.277" height="21.277"/>
	<path style="fill:#FFF5CC;" d="M234.585,169.443H206.78c-4.176,0-7.559-3.384-7.559-7.559s3.384-7.559,7.559-7.559h24.674   l26.615-26.616c2.953-2.951,7.739-2.951,10.691,0c2.952,2.953,2.952,7.739,0,10.691l-28.83,28.83   C238.512,168.647,236.589,169.443,234.585,169.443z"/>
</g>
<g>
	<rect x="356.112" y="270.26" style="fill:#57545C;" width="23.978" height="113.047"/>
	<rect x="301.977" y="411.165" style="fill:#57545C;" width="78.113" height="59.88"/>
	<rect x="301.977" y="270.26" style="fill:#57545C;" width="23.978" height="113.047"/>
</g>
<circle style="fill:#3C66B1;" cx="206.781" cy="411.165" r="61.218"/>
<path style="opacity:0.23;fill:#57545C;enable-background:new    ;" d="M267.998,411.167c0,33.81-27.408,61.218-61.218,61.218  s-61.218-27.408-61.218-61.218H267.998z"/>
<circle style="fill:#52A2E7;" cx="206.781" cy="411.165" r="20.824"/>
<path style="fill:#315591;" d="M227.604,411.167c0,11.501-9.323,20.824-20.824,20.824s-20.824-9.323-20.824-20.824H227.604z"/>
<g>
	<rect x="412.454" y="267.508" style="fill:#3E3B43;" width="11.857" height="44.271"/>
	<rect x="412.454" y="338.062" style="fill:#3E3B43;" width="11.857" height="44.271"/>
	<rect x="412.454" y="408.615" style="fill:#3E3B43;" width="11.857" height="44.271"/>
</g>
<rect x="301.977" y="446.563" style="fill:#77757E;" width="78.113" height="24.492"/>
<path d="M194.311,131.523c11.044,0,20.028-8.984,20.028-20.027c0-11.044-8.984-20.028-20.028-20.028  c-11.043,0-20.027,8.984-20.027,20.028C174.284,122.539,183.268,131.523,194.311,131.523z M194.311,106.587  c2.707,0,4.91,2.203,4.91,4.91s-2.203,4.909-4.91,4.909c-2.706,0-4.909-2.202-4.909-4.909S191.604,106.587,194.311,106.587z"/>
<path d="M194.311,192.244c-11.043,0-20.027,8.984-20.027,20.027c0,11.044,8.984,20.028,20.027,20.028  c11.044,0,20.028-8.984,20.028-20.028C214.339,201.228,205.354,192.244,194.311,192.244z M194.311,217.18  c-2.707,0-4.909-2.203-4.909-4.91c0-2.706,2.202-4.909,4.909-4.909c2.706,0,4.91,2.202,4.91,4.909  C199.22,214.977,197.017,217.18,194.311,217.18z"/>
<path d="M296.093,127.543c-4.176,0-7.559,3.384-7.559,7.559v39.567c0,4.176,3.384,7.559,7.559,7.559h39.567  c4.176,0,7.559-3.384,7.559-7.559v-39.568c0-4.176-3.384-7.559-7.559-7.559L296.093,127.543L296.093,127.543z M328.101,167.111  h-24.449v-24.45h24.449V167.111z"/>
<path d="M316.917,235.594c4.176,0,7.559-3.384,7.559-7.559v-13.72h3.92v13.72c0,4.176,3.384,7.559,7.559,7.559h21.278  c4.176,0,7.559-3.384,7.559-7.559v-13.72h2.954c4.176,0,7.559-3.384,7.559-7.559V103.018c0-4.176-3.384-7.559-7.559-7.559h-23.112  V81.738c0-4.176-3.384-7.559-7.559-7.559h-21.278c-4.176,0-7.559,3.384-7.559,7.559v13.721h-3.92V81.738  c0-4.176-3.384-7.559-7.559-7.559h-21.278c-4.176,0-7.559,3.384-7.559,7.559v13.721h-3.914c-4.176,0-7.559,3.384-7.559,7.559v26.31  l-24.995,24.996h-18.607c-2.99-7.305-10.167-12.469-18.535-12.469c-11.043,0-20.027,8.984-20.027,20.028s8.984,20.028,20.027,20.028  c8.369,0,15.546-5.165,18.535-12.469h21.739c2.005,0,3.927-0.796,5.346-2.213l16.519-16.519v56.044c0,3.526,2.417,6.479,5.682,7.314  l-18.636,18.637c-1.417,1.417-2.213,3.339-2.213,5.345v60.388c-7.305,2.99-12.469,10.167-12.469,18.535  c0,11.043,8.984,20.027,20.028,20.027c11.043,0,20.027-8.984,20.027-20.027c0-8.369-5.164-15.545-12.468-18.535v-57.257  l26.867-26.868h4.813v13.72c0,4.176,3.384,7.559,7.559,7.559h21.278V235.594z M194.311,166.793c-2.707,0-4.909-2.203-4.909-4.91  c0-2.706,2.202-4.91,4.909-4.91c2.706,0,4.91,2.203,4.91,4.91C199.22,164.59,197.017,166.793,194.311,166.793z M248.84,321.884  c-2.707,0-4.91-2.202-4.91-4.909c0-2.706,2.203-4.91,4.91-4.91c2.706,0,4.909,2.203,4.909,4.91  C253.748,319.682,251.547,321.884,248.84,321.884z M349.674,220.475h-6.159v-6.16h6.159V220.475z M360.187,199.195h-2.954h-21.278  h-19.038h-21.278h-24.072v-88.618h3.914h21.278h19.038h21.278h23.112V199.195z M323.356,89.297h6.159v6.16h-6.159V89.297z   M283.04,89.297h6.159v6.16h-6.159V89.297z M309.357,214.314v6.16h-6.159v-6.16H309.357z"/>
<path d="M380.09,262.701h-23.977c-4.176,0-7.559,3.384-7.559,7.559v113.046c0,4.176,3.384,7.559,7.559,7.559h23.977  c4.176,0,7.559-3.384,7.559-7.559V270.26C387.65,266.085,384.266,262.701,380.09,262.701z M372.531,375.747h-8.858v-97.927h8.858  V375.747z"/>
<path d="M436.172,202.725c4.176,0,7.559-3.384,7.559-7.559v-94.632c0-4.176-3.384-7.559-7.559-7.559h-16.418V10.565  c0-4.176-3.384-7.559-7.559-7.559h-75.322c-2.005,0-3.927,0.796-5.346,2.213L301.43,35.319H200.913L167.81,2.216  c-1.483-1.483-3.509-2.298-5.607-2.209l-86.64,3.005c-4.071,0.141-7.297,3.481-7.297,7.554v64.522v24.439v24.937v24.439v24.937  v24.438v24.938v24.438v33.036c0,4.176,3.384,7.559,7.559,7.559h56.073v216.192c0,4.176,3.384,7.559,7.559,7.559h272.739  c4.176,0,7.559-3.384,7.559-7.559v-43.997h16.418c4.176,0,7.559-3.384,7.559-7.559V408.61c0-4.176-3.384-7.559-7.559-7.559h-16.418  v-11.163h16.418c4.176,0,7.559-3.384,7.559-7.559v-44.272c0-4.176-3.384-7.559-7.559-7.559h-16.418v-11.163h16.418  c4.176,0,7.559-3.384,7.559-7.559v-44.272c0-4.176-3.384-7.559-7.559-7.559h-16.418v-57.219H436.172z M428.613,108.094v79.514  h-8.858v-79.514H428.613z M83.383,82.647h55.362v9.32H83.383V82.647z M83.383,132.022h55.362v9.32H83.383V132.022z M83.383,181.398  h55.362v9.319H83.383V181.398z M83.383,230.774h55.362v9.319H83.383V230.774z M153.121,411.167c0-21.637,12.88-40.309,31.368-48.79  c-1.906,9.5-1.309,19.521,1.804,29.177c-4.885,5.101-7.896,12.01-7.896,19.613c0,2.381,0.298,4.693,0.853,6.903  c-8.832,2.131-17.864,1.47-25.888-1.915C153.208,414.513,153.121,412.85,153.121,411.167z M220.045,411.167  c0,7.314-5.951,13.265-13.265,13.265s-13.265-5.951-13.265-13.265s5.951-13.264,13.265-13.264S220.045,403.853,220.045,411.167z   M187.064,431.558c5.11,4.943,12.062,7.993,19.716,7.993c2.475,0,4.877-0.32,7.168-0.919c2.14,8.836,1.49,17.897-1.888,25.931  c-1.738,0.17-3.498,0.262-5.281,0.262c-21.699,0-40.417-12.955-48.863-31.529c3.646,0.737,7.366,1.127,11.118,1.127  C175.045,434.424,181.123,433.461,187.064,431.558z M227.377,430.665c4.82-5.089,7.786-11.952,7.786-19.498  c0-2.448-0.311-4.825-0.897-7.094c8.808-2.176,17.872-1.565,25.91,1.807c0.171,1.74,0.263,3.502,0.263,5.286  c0,21.574-12.805,40.202-31.208,48.718C231.123,450.366,230.505,440.317,227.377,430.665z M226.35,390.639  c-5.097-4.861-11.988-7.855-19.571-7.855c-2.427,0-4.784,0.307-7.033,0.883c-2.139-8.837-1.481-17.877,1.905-25.907  c1.689-0.161,3.399-0.251,5.129-0.251c21.583,0,40.219,12.816,48.728,31.23C245.993,386.86,235.962,387.49,226.35,390.639z   M147.016,445.142c11.851,20.765,34.191,34.804,59.764,34.804c21.684,0,41.044-10.097,53.659-25.826v42.76H147.016V445.142z   M404.636,496.881H275.557v-85.713c0-37.924-30.853-68.777-68.778-68.777c-25.573,0-47.913,14.039-59.764,34.803v-96.505  c0-4.176-3.384-7.559-7.559-7.559H83.383v-17.918h62.922c4.176,0,7.559-3.384,7.559-7.559v-24.438c0-4.176-3.384-7.559-7.559-7.559  H83.383v-9.819h62.922c4.176,0,7.559-3.384,7.559-7.559v-24.438c0-4.176-3.384-7.559-7.559-7.559H83.383v-9.818h62.922  c4.176,0,7.559-3.384,7.559-7.559v-24.439c0-4.176-3.384-7.559-7.559-7.559H83.383v-9.818h62.922c4.176,0,7.559-3.384,7.559-7.559  v-24.44c0-4.176-3.384-7.559-7.559-7.559H83.383V17.867l76.059-2.638l32.993,32.994c1.418,1.418,3.34,2.214,5.346,2.214H304.56  c2.005,0,3.927-0.796,5.346-2.214l30.097-30.098h64.632v82.41v94.632v72.338v44.272v26.281v44.272v26.281v44.272v43.997H404.636z   M428.613,416.171v29.154h-8.858v-29.154H428.613z M428.613,345.617v29.154h-8.858v-29.154H428.613z M428.613,275.064v29.154h-8.858  v-29.154H428.613z"/>
<path d="M380.09,403.608h-73.253c-4.176,0-7.559,3.384-7.559,7.559v59.884c0,4.176,3.384,7.559,7.559,7.559h73.253  c4.176,0,7.559-3.384,7.559-7.559v-59.884C387.65,406.992,384.266,403.608,380.09,403.608z M372.531,463.492h-58.134v-44.765h58.134  V463.492z"/>
<path d="M325.957,390.865c4.176,0,7.559-3.384,7.559-7.559V270.26c0-4.176-3.384-7.559-7.559-7.559h-23.978  c-4.176,0-7.559,3.384-7.559,7.559v113.046c0,4.176,3.384,7.559,7.559,7.559H325.957z M309.538,277.819h8.86v97.927h-8.86V277.819z"/>
<g>
</g>
<g>
</g>
<g>
</g>
<g>
</g>
<g>
</g>
<g>
</g>
<g>
</g>
<g>
</g>
<g>
</g>
<g>
</g>
<g>
</g>
<g>
</g>
<g>
</g>
<g>
</g>
<g>
</g>
</svg>
