<?xml version="1.0" encoding="iso-8859-1"?>
<!-- Generator: Adobe Illustrator 19.0.0, SVG Export Plug-In . SVG Version: 6.00 Build 0)  -->
<svg xmlns="http://www.w3.org/2000/svg" xmlns:xlink="http://www.w3.org/1999/xlink" version="1.1" id="Layer_1" x="0px" y="0px" viewBox="0 0 512 512" style="enable-background:new 0 0 512 512;" xml:space="preserve">
<path style="fill:#FF3F62;" d="M504.406,74.686v403.615c0,14.358-11.747,26.105-26.105,26.105H33.7  c-14.358,0-26.105-11.747-26.105-26.105V33.7C7.594,19.341,19.341,7.594,33.7,7.594h403.614L504.406,74.686z"/>
<rect x="77.428" y="7.594" style="fill:#C70024;" width="247.848" height="144.448"/>
<rect x="106.397" y="221.148" style="fill:#FFDA44;" width="290.132" height="283.256"/>
<rect x="432.443" y="297.523" style="fill:#C70024;" width="36.91" height="71.414"/>
<rect x="432.443" y="297.523" style="fill:#FFA5B5;" width="36.91" height="36.91"/>
<rect x="38.073" y="297.523" style="fill:#C70024;" width="36.91" height="71.414"/>
<rect x="38.073" y="297.523" style="fill:#FFA5B5;" width="36.91" height="36.91"/>
<g>
	<rect x="150.604" y="272.645" style="fill:#FFCD00;" width="206.213" height="40.261"/>
	<rect x="150.604" y="343.786" style="fill:#FFCD00;" width="206.213" height="40.261"/>
	<rect x="150.604" y="414.926" style="fill:#FFCD00;" width="206.213" height="40.261"/>
</g>
<path style="fill:#FFA5B5;" d="M391.582,152.041H176.97c-19.946,0-36.115-16.169-36.115-36.115V7.594h250.728V152.041z"/>
<g>
	<rect x="313.288" y="31.53" style="fill:#C70024;" width="36.91" height="91.665"/>
	<path style="opacity:0.2;fill:#C70024;enable-background:new    ;" d="M437.315,7.594h-4.867v321.605v81.051   c0,0.897-0.046,1.784-0.136,2.659c-1.344,13.121-12.51,23.446-25.97,23.446H7.594V478.3c0,14.358,11.747,26.105,26.105,26.105   h444.602c13.461,0,24.627-10.325,25.97-23.446c0.089-0.875,0.136-1.762,0.136-2.659v-81.051V74.686L437.315,7.594z"/>
</g>
<path d="M509.776,69.316L442.684,2.225C441.26,0.801,439.328,0,437.315,0h-45.732h-66.306H140.855H77.431H33.7  C15.118,0,0,15.118,0,33.7v444.601C0,496.883,15.118,512,33.7,512h72.698H396.53h81.771C496.883,512,512,496.882,512,478.301V74.686  C512,72.672,511.2,70.741,509.776,69.316z M325.277,15.188h58.712v129.258h-58.712H176.97c-15.727,0-28.52-12.794-28.52-28.52  V15.188H325.277z M133.261,15.188v100.738c0,10.893,4.015,20.858,10.629,28.52H85.025V15.188H133.261z M113.992,496.812V228.739  h274.944v268.073H113.992z M496.812,478.3c0,10.207-8.304,18.511-18.511,18.511h-74.177V221.145c0-4.195-3.4-7.594-7.594-7.594  H106.398c-4.194,0-7.594,3.399-7.594,7.594v275.667H33.7c-10.207,0-18.512-8.305-18.512-18.512V33.7  c0-10.207,8.305-18.512,18.512-18.512h36.136V152.04c0,4.195,3.4,7.594,7.594,7.594h99.539h148.307h66.306  c4.194,0,7.594-3.399,7.594-7.594V15.188h34.993l62.643,62.642V478.3H496.812z"/>
<path d="M313.293,130.787h36.91c4.194,0,7.594-3.399,7.594-7.594V31.53c0-4.195-3.4-7.594-7.594-7.594h-36.91  c-4.194,0-7.594,3.399-7.594,7.594v91.663C305.699,127.388,309.098,130.787,313.293,130.787z M320.887,39.124h21.722v76.475h-21.722  V39.124z"/>
<path d="M424.853,297.522v36.91v34.502c0,4.195,3.4,7.594,7.594,7.594h36.91c4.194,0,7.594-3.399,7.594-7.594v-34.502v-36.91  c0-4.195-3.4-7.594-7.594-7.594h-36.91C428.253,289.928,424.853,293.328,424.853,297.522z M440.041,361.341v-19.314h21.722v19.314  H440.041z M440.041,305.116h21.722v21.722h-21.722V305.116z"/>
<path d="M74.983,289.928h-36.91c-4.194,0-7.594,3.399-7.594,7.594v36.91v34.502c0,4.195,3.4,7.594,7.594,7.594h36.91  c4.194,0,7.594-3.399,7.594-7.594v-34.502v-36.91C82.577,293.328,79.177,289.928,74.983,289.928z M45.667,305.116h21.722v21.722  H45.667V305.116z M45.667,361.341v-19.314h21.722v19.314H45.667z"/>
<path d="M356.822,265.054H150.608c-4.194,0-7.594,3.399-7.594,7.594v40.261c0,4.195,3.4,7.594,7.594,7.594h206.215  c4.194,0,7.594-3.399,7.594-7.594v-40.261C364.416,268.453,361.016,265.054,356.822,265.054z M349.228,305.316H158.202v-25.073  h191.027v25.073H349.228z"/>
<path d="M356.822,336.196H150.608c-4.194,0-7.594,3.399-7.594,7.594v40.261c0,4.195,3.4,7.594,7.594,7.594h206.215  c4.194,0,7.594-3.399,7.594-7.594V343.79C364.416,339.595,361.016,336.196,356.822,336.196z M349.228,376.456H158.202v-25.073  h191.027v25.073H349.228z"/>
<path d="M356.822,407.336H150.608c-4.194,0-7.594,3.399-7.594,7.594v40.261c0,4.195,3.4,7.594,7.594,7.594h206.215  c4.194,0,7.594-3.399,7.594-7.594V414.93C364.416,410.737,361.016,407.336,356.822,407.336z M349.228,447.598H158.202v-25.073  h191.027v25.073H349.228z"/>
<g>
</g>
<g>
</g>
<g>
</g>
<g>
</g>
<g>
</g>
<g>
</g>
<g>
</g>
<g>
</g>
<g>
</g>
<g>
</g>
<g>
</g>
<g>
</g>
<g>
</g>
<g>
</g>
<g>
</g>
</svg>
