<?xml version="1.0" encoding="iso-8859-1"?>
<!-- Generator: Adobe Illustrator 19.0.0, SVG Export Plug-In . SVG Version: 6.00 Build 0)  -->
<svg xmlns="http://www.w3.org/2000/svg" xmlns:xlink="http://www.w3.org/1999/xlink" version="1.1" id="Layer_1" x="0px" y="0px" viewBox="0 0 512 512" style="enable-background:new 0 0 512 512;" xml:space="preserve">
<polygon style="fill:#3C66B1;" points="309.693,143.492 504.396,143.492 504.396,331.65 458.637,428.102 412.878,331.65   202.307,331.65 202.307,272.055 "/>
<polygon style="opacity:0.33;fill:#3E3B43;enable-background:new    ;" points="332.573,292.621 332.573,143.492 309.693,143.492   202.307,272.055 202.307,292.621 "/>
<polygon style="fill:#4E8FE3;" points="99.121,272.055 309.693,272.055 309.693,83.898 7.604,83.898 7.604,272.055 53.363,368.507   "/>
<g>
	<circle style="fill:#FFDA44;" cx="74.793" cy="177.619" r="19.324"/>
	<circle style="fill:#FFDA44;" cx="158.65" cy="177.619" r="19.324"/>
	<circle style="fill:#FFDA44;" cx="242.497" cy="177.619" r="19.324"/>
</g>
<path d="M504.396,135.888H317.297v-51.99c0-4.2-3.404-7.604-7.604-7.604H7.604c-4.2,0-7.604,3.404-7.604,7.604v188.158  c0,1.127,0.25,2.241,0.734,3.26l45.759,96.452c1.259,2.653,3.934,4.344,6.87,4.344s5.611-1.691,6.87-4.344l43.698-92.108h90.773  v51.991c0,4.2,3.404,7.604,7.604,7.604h205.762l43.698,92.108c1.259,2.653,3.934,4.344,6.87,4.344s5.611-1.691,6.87-4.344  l45.759-96.452c0.484-1.019,0.734-2.132,0.734-3.26V143.492C512,139.292,508.596,135.888,504.396,135.888z M99.122,264.451  c-2.936,0-5.611,1.691-6.87,4.344l-38.888,81.971l-38.156-80.423V91.502h286.881v172.95L99.122,264.451L99.122,264.451z   M496.792,329.939l-38.155,80.423l-38.888-81.971c-0.023-0.05-0.053-0.094-0.076-0.142c-0.069-0.137-0.141-0.272-0.218-0.405  c-0.055-0.095-0.112-0.189-0.17-0.28c-0.071-0.111-0.144-0.219-0.22-0.325c-0.074-0.104-0.15-0.207-0.229-0.306  c-0.069-0.087-0.141-0.172-0.213-0.257c-0.091-0.105-0.185-0.21-0.282-0.31c-0.072-0.074-0.146-0.146-0.22-0.217  c-0.102-0.097-0.206-0.193-0.312-0.284c-0.082-0.071-0.167-0.137-0.253-0.205c-0.103-0.08-0.207-0.16-0.314-0.234  c-0.101-0.071-0.205-0.137-0.309-0.204c-0.096-0.061-0.194-0.122-0.293-0.177c-0.121-0.069-0.244-0.133-0.37-0.196  c-0.089-0.045-0.179-0.089-0.27-0.13c-0.135-0.061-0.272-0.116-0.411-0.168c-0.09-0.034-0.18-0.069-0.273-0.099  c-0.136-0.046-0.275-0.087-0.414-0.126c-0.103-0.028-0.207-0.056-0.311-0.08c-0.127-0.029-0.253-0.055-0.381-0.077  c-0.128-0.023-0.256-0.043-0.385-0.059c-0.107-0.013-0.215-0.024-0.324-0.033c-0.155-0.013-0.31-0.02-0.465-0.023  c-0.053-0.001-0.103-0.008-0.155-0.008H209.911v-44.387h99.782c4.2,0,7.604-3.404,7.604-7.604V151.096h179.495V329.939z"/>
<path d="M74.795,150.694c-14.846,0-26.924,12.078-26.924,26.924s12.078,26.924,26.924,26.924s26.924-12.078,26.924-26.924  S89.641,150.694,74.795,150.694z M74.795,189.334c-6.46,0-11.716-5.256-11.716-11.716s5.256-11.716,11.716-11.716  s11.716,5.256,11.716,11.716S81.256,189.334,74.795,189.334z"/>
<path d="M158.649,150.694c-14.846,0-26.924,12.078-26.924,26.924s12.078,26.924,26.924,26.924s26.924-12.078,26.924-26.924  S173.494,150.694,158.649,150.694z M158.649,189.334c-6.46,0-11.716-5.256-11.716-11.716s5.256-11.716,11.716-11.716  s11.716,5.256,11.716,11.716S165.109,189.334,158.649,189.334z"/>
<path d="M242.502,204.542c14.846,0,26.924-12.078,26.924-26.924s-12.078-26.924-26.924-26.924  c-14.847,0-26.925,12.078-26.925,26.924S227.655,204.542,242.502,204.542z M242.502,165.902c6.46,0,11.716,5.256,11.716,11.716  s-5.256,11.716-11.716,11.716s-11.717-5.256-11.717-11.716S236.042,165.902,242.502,165.902z"/>
<g>
</g>
<g>
</g>
<g>
</g>
<g>
</g>
<g>
</g>
<g>
</g>
<g>
</g>
<g>
</g>
<g>
</g>
<g>
</g>
<g>
</g>
<g>
</g>
<g>
</g>
<g>
</g>
<g>
</g>
</svg>
