<?xml version="1.0" encoding="iso-8859-1"?>
<!-- Generator: Adobe Illustrator 19.0.0, SVG Export Plug-In . SVG Version: 6.00 Build 0)  -->
<svg xmlns="http://www.w3.org/2000/svg" xmlns:xlink="http://www.w3.org/1999/xlink" version="1.1" id="Layer_1" x="0px" y="0px" viewBox="0 0 512 512" style="enable-background:new 0 0 512 512;" xml:space="preserve">
<path style="fill:#D7D5D9;" d="M482.198,467.323H29.802c-12.224,0-22.225-10.001-22.225-22.225V66.902  c0-12.224,10.001-22.225,22.225-22.225h452.397c12.224,0,22.225,10.001,22.225,22.225v378.195  C504.423,457.321,494.422,467.323,482.198,467.323z"/>
<path style="fill:#57545C;" d="M503.447,66.691c0-12.224-10.001-22.225-22.225-22.225H28.826c-12.224,0-22.225,10.001-22.225,22.225  V130.4h496.847V66.691z"/>
<path style="fill:#FF3F62;" d="M454.233,102.403L454.233,102.403c-8.233,0-14.97-6.736-14.97-14.97l0,0  c0-8.233,6.736-14.97,14.97-14.97l0,0c8.233,0,14.97,6.736,14.97,14.97l0,0C469.204,95.667,462.466,102.403,454.233,102.403z"/>
<path style="fill:#FFE477;" d="M393.097,102.403L393.097,102.403c-8.233,0-14.97-6.736-14.97-14.97l0,0  c0-8.233,6.736-14.97,14.97-14.97l0,0c8.233,0,14.97,6.736,14.97,14.97l0,0C408.068,95.667,401.33,102.403,393.097,102.403z"/>
<path style="fill:#4E8FE3;" d="M331.961,102.403L331.961,102.403c-8.233,0-14.97-6.736-14.97-14.97l0,0  c0-8.233,6.736-14.97,14.97-14.97l0,0c8.233,0,14.97,6.736,14.97,14.97l0,0C346.932,95.667,340.195,102.403,331.961,102.403z"/>
<g>
	<path style="fill:#DFDFE2;" d="M65.697,72.464h192.907c8.233,0,14.97,6.736,14.97,14.97l0,0c0,8.233-6.736,14.97-14.97,14.97   H65.697c-8.233,0-14.97-6.736-14.97-14.97l0,0C50.728,79.2,57.464,72.464,65.697,72.464z"/>
	<path style="fill:#DFDFE2;" d="M437.112,292.162H84.879c-10.928,0-19.868-8.941-19.868-19.868l0,0   c0-10.928,8.941-19.868,19.868-19.868h352.233c10.928,0,19.868,8.941,19.868,19.868l0,0   C456.98,283.222,448.039,292.162,437.112,292.162z"/>
</g>
<g>
	<rect x="201.056" y="186.498" style="fill:#ACAAB1;" width="122.571" height="31.952"/>
	<rect x="331.81" y="412.931" style="fill:#ACAAB1;" width="122.571" height="21.037"/>
	<rect x="43.561" y="415.679" style="fill:#ACAAB1;" width="122.571" height="21.037"/>
</g>
<g style="opacity:0.46;">
	<path style="fill:#ACAAB1;" d="M7.577,401.442v43.656c0,12.224,9.982,22.225,22.182,22.225h451.508   c12.199,0,22.182-10.001,22.182-22.225v-43.656H7.577z"/>
</g>
<path d="M482.198,37.101H29.802C13.368,37.101,0,50.469,0,66.902v378.195c0,16.433,13.368,29.802,29.802,29.802h452.397  c16.433,0,29.802-13.368,29.802-29.802V66.902C512,50.469,498.632,37.101,482.198,37.101z M29.802,52.254h452.397  c8.077,0,14.648,6.572,14.648,14.648v56.131H15.153V66.902C15.153,58.826,21.724,52.254,29.802,52.254z M482.198,459.746H29.802  c-8.078,0-14.648-6.572-14.648-14.648v-306.91h481.693v306.91C496.847,453.174,490.275,459.746,482.198,459.746z"/>
<path d="M454.233,109.98c12.432,0,22.546-10.114,22.546-22.546s-10.114-22.546-22.546-22.546c-12.432,0-22.546,10.114-22.546,22.546  S441.801,109.98,454.233,109.98z M454.233,80.04c4.076,0,7.393,3.317,7.393,7.393s-3.317,7.393-7.393,7.393  s-7.393-3.317-7.393-7.393S450.157,80.04,454.233,80.04z"/>
<path d="M393.097,109.98c12.432,0,22.546-10.114,22.546-22.546s-10.114-22.546-22.546-22.546c-12.432,0-22.546,10.114-22.546,22.546  S380.665,109.98,393.097,109.98z M393.097,80.04c4.076,0,7.393,3.317,7.393,7.393s-3.317,7.393-7.393,7.393  c-4.076,0-7.393-3.317-7.393-7.393S389.021,80.04,393.097,80.04z"/>
<path d="M331.962,109.98c12.432,0,22.546-10.114,22.546-22.546s-10.114-22.546-22.546-22.546c-12.432,0-22.546,10.114-22.546,22.546  S319.529,109.98,331.962,109.98z M331.962,80.04c4.076,0,7.393,3.317,7.393,7.393s-3.317,7.393-7.393,7.393  c-4.076,0-7.393-3.317-7.393-7.393S327.885,80.04,331.962,80.04z"/>
<path d="M65.697,109.98h192.907c12.433,0,22.546-10.114,22.546-22.546s-10.114-22.546-22.546-22.546H65.697  c-12.433,0-22.546,10.114-22.546,22.546S53.264,109.98,65.697,109.98z M65.697,80.04h192.907c4.076,0,7.393,3.317,7.393,7.393  s-3.317,7.393-7.393,7.393H65.697c-4.076,0-7.393-3.317-7.393-7.393S61.621,80.04,65.697,80.04z"/>
<path d="M437.113,244.849H84.879c-15.132,0-27.445,12.313-27.445,27.445c0,15.132,12.312,27.444,27.445,27.444h352.233  c15.132,0,27.445-12.312,27.445-27.444C464.558,257.162,452.245,244.849,437.113,244.849z M437.113,284.584H84.879  c-6.777,0-12.291-5.514-12.291-12.29c0-6.778,5.514-12.291,12.291-12.291h352.233c6.777,0,12.291,5.514,12.291,12.291  C449.403,279.071,443.889,284.584,437.113,284.584z"/>
<path d="M201.056,226.03H323.63c4.184,0,7.577-3.391,7.577-7.577v-31.952c0-4.185-3.392-7.577-7.577-7.577H201.056  c-4.184,0-7.577,3.391-7.577,7.577v31.952C193.479,222.638,196.87,226.03,201.056,226.03z M208.632,194.079h107.421v16.798H208.632  V194.079z"/>
<path d="M454.385,405.355H331.811c-4.184,0-7.577,3.391-7.577,7.577v21.037c0,4.185,3.392,7.577,7.577,7.577h122.574  c4.184,0,7.577-3.391,7.577-7.577v-21.037C461.961,408.748,458.569,405.355,454.385,405.355z M446.808,426.392H339.387v-5.884  h107.421V426.392z"/>
<path d="M166.133,405.355H43.558c-4.184,0-7.577,3.391-7.577,7.577v21.037c0,4.185,3.392,7.577,7.577,7.577h122.574  c4.184,0,7.577-3.391,7.577-7.577v-21.037C173.71,408.748,170.317,405.355,166.133,405.355z M158.556,426.392H51.135v-5.884h107.421  v5.884H158.556z"/>
<g>
</g>
<g>
</g>
<g>
</g>
<g>
</g>
<g>
</g>
<g>
</g>
<g>
</g>
<g>
</g>
<g>
</g>
<g>
</g>
<g>
</g>
<g>
</g>
<g>
</g>
<g>
</g>
<g>
</g>
</svg>
