<?xml version="1.0" encoding="iso-8859-1"?>
<!-- Generator: Adobe Illustrator 19.0.0, SVG Export Plug-In . SVG Version: 6.00 Build 0)  -->
<svg xmlns="http://www.w3.org/2000/svg" xmlns:xlink="http://www.w3.org/1999/xlink" version="1.1" id="Layer_1" x="0px" y="0px" viewBox="0 0 512 512" style="enable-background:new 0 0 512 512;" xml:space="preserve">
<path style="fill:#5D5D5D;" d="M312.685,437.969v23.015c0,23.862-19.524,43.387-43.387,43.387h-26.597  c-23.862,0-43.387-19.524-43.387-43.387v-23.015H312.685z"/>
<path style="fill:#FFDA44;" d="M390.156,185.187c0-74.729-61.101-135.188-136.069-134.142  c-73.56,1.025-133.027,62.057-132.234,135.62c0.359,33.278,12.837,63.645,33.227,86.905c28.04,31.985,44.235,72.624,44.235,115.16  v8.084h113.371v-6.79c0-43.124,16.334-84.344,44.62-116.894C377.768,249.582,390.156,218.832,390.156,185.187z"/>
<rect x="199.313" y="396.814" style="fill:#3E3B43;" width="113.367" height="41.569"/>
<rect x="199.313" y="434.803" style="fill:#2F2D30;" width="113.367" height="14.926"/>
<path style="opacity:0.36;fill:#FFFFFF;enable-background:new    ;" d="M390.155,188.968c0-24.748-6.706-47.927-18.392-67.829  l-249.071,52.847c-0.61,5.402-0.9,10.894-0.84,16.46c0.233,21.608,5.581,41.987,14.882,59.993l253.192-53.721  C390.073,194.151,390.155,191.57,390.155,188.968z"/>
<path style="opacity:0.1;fill:#3E3B43;enable-background:new    ;" d="M253.673,51.044c-6.122,0.085-12.144,0.595-18.044,1.485  c64.581,9.679,114.108,65.38,114.108,132.658c0,33.646-12.387,64.395-32.849,87.941c-28.287,32.551-44.62,73.77-44.62,116.894v6.79  h40.007v-6.79c0-43.124,16.334-84.344,44.62-116.894c20.462-23.547,32.849-54.296,32.849-87.941  C389.743,110.458,328.643,50,253.673,51.044z"/>
<path d="M253.98,43.418c-77.903,1.085-140.597,65.383-139.755,143.33c0.365,33.814,12.837,66.434,35.119,91.852  c27.305,31.148,42.343,70.26,42.343,110.13v8.084v41.156v0.413v22.602c0,28.13,22.885,51.015,51.015,51.015h26.597  c28.13,0,51.015-22.885,51.015-51.015v-22.602v-0.413v-41.156v-6.791c0-40.43,15.182-80.166,42.75-111.89  c22.39-25.765,34.72-58.774,34.72-92.946c0-38.246-14.999-74.1-42.233-100.958C328.322,57.378,292.27,42.869,253.98,43.418z   M256,137.678c-4.2,0-7.617-3.416-7.617-7.617c0-4.201,3.417-7.617,7.617-7.617c4.2,0,7.617,3.416,7.617,7.617  C263.617,134.261,260.201,137.678,256,137.678z M263.628,389.185V195.926c15.424,1.09,30.656,5.493,44.526,13.208l-42.288,180.051  H263.628z M248.372,389.185h-2.406l-42.268-179.967c13.91-7.767,29.195-12.198,44.675-13.293v193.259H248.372z M239.891,404.442  c0.008,0,0.015,0.002,0.023,0.002c0.011,0,0.023-0.002,0.035-0.002h31.933c0.011,0,0.023,0.002,0.035,0.002  c0.008,0,0.015-0.002,0.023-0.002h33.118v25.9h-98.114v-25.9H239.891z M269.299,496.743h-26.597  c-19.718,0-35.758-16.041-35.758-35.758v-14.974h98.114v14.974C305.057,480.702,289.016,496.743,269.299,496.743z M351.548,268.124  c-29.79,34.281-46.28,77.243-46.489,121.06h-23.522l40.182-171.079c3.501,2.72,6.872,5.686,10.087,8.9  c1.489,1.489,3.442,2.234,5.394,2.234c1.952,0,3.905-0.745,5.394-2.234c2.979-2.98,2.979-7.809,0-10.788  c-5.347-5.347-11.072-10.091-17.086-14.239l6.629-28.226c10.245-2.265,17.936-11.414,17.936-22.331  c0-12.612-10.262-22.874-22.874-22.874c-12.612,0-22.874,10.262-22.874,22.874c0,8.915,5.129,16.649,12.59,20.421l-5.153,21.937  c-15.133-7.726-31.546-12.102-48.133-13.128v-29.029c8.872-3.149,15.245-11.622,15.245-21.561c0-12.612-10.262-22.874-22.874-22.874  s-22.874,10.262-22.874,22.874c0,9.938,6.373,18.413,15.245,21.561v29.029c-16.642,1.029-33.109,5.431-48.283,13.204l-5.91-25.166  c5.552-4.177,9.15-10.819,9.15-18.287c0-12.612-10.262-22.874-22.874-22.874s-22.874,10.262-22.874,22.874  c0,12.319,9.791,22.39,21.999,22.852l6.769,28.821c-5.961,4.125-11.637,8.837-16.94,14.141c-2.979,2.98-2.979,7.809,0,10.788  c2.978,2.977,7.808,2.979,10.787,0c3.17-3.17,6.494-6.098,9.944-8.787l40.152,170.967h-23.351v-0.456  c0-43.573-16.382-86.257-46.128-120.188c-19.881-22.678-31.01-51.785-31.335-81.958c-0.751-69.561,55.195-126.941,124.712-127.91  c34.165-0.462,66.347,12.458,90.647,36.421c24.305,23.967,37.689,55.963,37.689,90.094  C382.528,215.681,371.526,245.136,351.548,268.124z M327.197,159.037c-4.2,0-7.617-3.416-7.617-7.617s3.417-7.617,7.617-7.617  c4.2,0,7.617,3.416,7.617,7.617S331.398,159.037,327.197,159.037z M180.453,158.02c-4.2,0-7.617-3.416-7.617-7.617  s3.417-7.617,7.617-7.617s7.617,3.416,7.617,7.617S184.653,158.02,180.453,158.02z"/>
<path d="M256,0C152.349,0,68.023,84.326,68.023,187.977c0,4.214,3.415,7.628,7.628,7.628c4.213,0,7.628-3.414,7.628-7.628  C83.279,92.74,160.761,15.257,256,15.257S428.721,92.74,428.721,187.977c0,4.214,3.415,7.628,7.628,7.628s7.628-3.414,7.628-7.628  C443.978,84.326,359.652,0,256,0z"/>
<g>
</g>
<g>
</g>
<g>
</g>
<g>
</g>
<g>
</g>
<g>
</g>
<g>
</g>
<g>
</g>
<g>
</g>
<g>
</g>
<g>
</g>
<g>
</g>
<g>
</g>
<g>
</g>
<g>
</g>
</svg>
