<?xml version="1.0" encoding="iso-8859-1"?>
<!-- Generator: Adobe Illustrator 19.0.0, SVG Export Plug-In . SVG Version: 6.00 Build 0)  -->
<svg xmlns="http://www.w3.org/2000/svg" xmlns:xlink="http://www.w3.org/1999/xlink" version="1.1" id="Layer_1" x="0px" y="0px" viewBox="0 0 512 512" style="enable-background:new 0 0 512 512;" xml:space="preserve">
<rect x="7.553" y="188.523" style="fill:#3C66B1;" width="109.145" height="130.269"/>
<rect x="63.14" y="102.855" style="fill:#52A2E7;" width="441.265" height="306.301"/>
<rect x="116.698" y="161.532" style="fill:#FFF5CC;" width="331.383" height="191.289"/>
<rect x="282.814" y="161.532" style="fill:#FFE477;" width="83.063" height="191.289"/>
<rect x="199.751" y="161.532" style="fill:#FFDA44;" width="83.063" height="191.289"/>
<rect x="116.698" y="161.532" style="fill:#FFCD00;" width="83.063" height="191.289"/>
<rect x="365.866" y="161.532" style="fill:#FFEB99;" width="82.205" height="191.289"/>
<polygon style="opacity:0.34;fill:#3C66B1;enable-background:new    ;" points="407.813,102.85 407.813,312.558 62.123,312.558   62.123,409.151 407.813,409.151 504.406,409.151 504.406,312.558 504.406,102.85 "/>
<rect x="34.574" y="188.654" style="opacity:0.5;fill:#2F2D30;enable-background:new    ;" width="28.576" height="130.007"/>
<path d="M504.427,95.276H63.166c-4.182,0-7.573,3.39-7.573,7.573v78.097H7.573c-4.182,0-7.573,3.39-7.573,7.573v130.266  c0,4.183,3.391,7.573,7.573,7.573h48.019v82.791c0,4.183,3.391,7.573,7.573,7.573h441.261c4.182,0,7.573-3.39,7.573-7.573V102.85  C512,98.667,508.609,95.276,504.427,95.276z M15.146,311.213v-115.12h40.446v115.12H15.146z M496.854,401.577H70.739v-82.791V188.52  v-78.097h426.115V401.577z"/>
<path d="M116.715,360.393h82.205h0.854h82.205h0.854h82.205h0.854h82.205c4.182,0,7.573-3.39,7.573-7.573V161.529  c0-4.183-3.391-7.573-7.573-7.573h-82.205h-0.854h-82.205h-0.854h-82.205h-0.854h-82.205c-4.182,0-7.573,3.39-7.573,7.573V352.82  C109.142,357.003,112.533,360.393,116.715,360.393z M440.522,169.102v176.145h-67.058V169.102H440.522z M357.463,169.102v176.145  h-67.058V169.102H357.463z M274.404,169.102v176.145h-67.058V169.102H274.404z M124.288,169.102h67.058v176.145h-67.058  C124.288,345.247,124.288,169.102,124.288,169.102z"/>
<g>
</g>
<g>
</g>
<g>
</g>
<g>
</g>
<g>
</g>
<g>
</g>
<g>
</g>
<g>
</g>
<g>
</g>
<g>
</g>
<g>
</g>
<g>
</g>
<g>
</g>
<g>
</g>
<g>
</g>
</svg>
