<?xml version="1.0" encoding="iso-8859-1"?>
<!-- Generator: Adobe Illustrator 19.0.0, SVG Export Plug-In . SVG Version: 6.00 Build 0)  -->
<svg xmlns="http://www.w3.org/2000/svg" xmlns:xlink="http://www.w3.org/1999/xlink" version="1.1" id="Layer_1" x="0px" y="0px" viewBox="0 0 512.002 512.002" style="enable-background:new 0 0 512.002 512.002;" xml:space="preserve">
<polygon style="fill:#315591;" points="251.727,375.742 251.727,282.928 174.349,282.928 174.349,375.742 127.222,375.742   213.039,461.558 298.855,375.742 "/>
<path style="fill:#3C66B1;" d="M285.084,75.658c-21.109-15.833-47.334-25.213-75.753-25.213  c-61.523,0-112.772,43.962-124.066,102.185c-0.774-0.023-1.546-0.059-2.325-0.059c-41.602,0-75.328,33.726-75.328,75.328  s33.726,75.328,75.328,75.328h242.724c41.591,0,76.792-27.361,88.584-65.066L285.084,75.658z"/>
<g>
	<rect x="174.354" y="303.228" style="opacity:0.21;fill:#2F2D30;enable-background:new    ;" width="77.372" height="21.65"/>
	<path style="opacity:0.21;fill:#2F2D30;enable-background:new    ;" d="M414.249,238.162l-35.41-44.55H236.383   c-12.84,0-23.345,10.505-23.345,23.345v26.496c0,12.84,10.505,23.345,23.345,23.345h162.996   C405.894,258.29,410.976,248.626,414.249,238.162z"/>
</g>
<path style="fill:#52A2E7;" d="M435.475,238.162c38.06,0,68.914-30.854,68.914-68.914s-30.854-68.914-68.914-68.914  c-1.143,0-2.278,0.031-3.406,0.086c-15.752-29.725-46.999-49.977-82.982-49.977c-45.688,0-83.745,32.647-92.131,75.882  c-0.574-0.017-1.148-0.044-1.727-0.044c-30.894,0-55.939,25.045-55.939,55.939s25.045,55.939,55.939,55.939h180.246V238.162z"/>
<path style="opacity:0.21;fill:#2F2D30;enable-background:new    ;" d="M435.475,100.335c-1.143,0-2.278,0.031-3.406,0.086  c-15.752-29.725-47-49.977-82.982-49.977c-5.43,0-10.747,0.475-15.924,1.36c29.116,4.991,53.65,23.388,67.019,48.617  c1.129-0.055,2.263-0.086,3.406-0.086c38.06,0,68.914,30.854,68.914,68.914s-30.854,68.914-68.914,68.914h31.888  c38.06,0,68.914-30.854,68.914-68.914S473.534,100.335,435.475,100.335z"/>
<path d="M436.484,92.729c-18.239-30.895-51.305-49.898-87.398-49.898c-24.219,0-46.779,8.619-64.457,23.157  c-22.24-15.163-48.139-23.157-75.296-23.157c-61.935,0-115.714,42.622-130.199,102.212C35.159,147.04,0,183.441,0,227.899  c0,45.733,37.206,82.941,82.941,82.941h83.797v57.29h-39.515c-3.078,0-5.855,1.854-7.033,4.699  c-1.178,2.845-0.528,6.118,1.649,8.296l85.816,85.816c1.487,1.486,3.436,2.23,5.383,2.23c1.948,0,3.897-0.743,5.383-2.23  l85.816-85.816c2.177-2.177,2.828-5.452,1.649-8.296c-1.177-2.845-3.954-4.699-7.033-4.699h-39.515v-57.29h66.326  c21.824,0,42.58-6.884,60.021-19.906c15.337-11.452,27.235-27.339,33.967-45.159h15.823c42.196,0,76.526-34.329,76.526-76.526  C512,127.39,478.216,93.272,436.484,92.729z M251.727,383.354h28.749l-67.438,67.438l-67.438-67.438h28.749  c4.205,0,7.612-3.408,7.612-7.612V310.84h62.152v64.902C244.114,379.946,247.522,383.354,251.727,383.354z M325.665,295.615h-73.938  H174.35h-91.41c-37.338,0-67.716-30.378-67.716-67.716c0-37.339,30.378-67.716,67.716-67.716c0.501,0,0.999,0.018,1.496,0.036  l0.596,0.02c0.079,0.002,0.157,0.003,0.236,0.003c3.632,0,6.774-2.576,7.469-6.163c10.793-55.639,59.827-96.022,116.594-96.022  c22.983,0,44.945,6.461,64.038,18.74c-10.528,11.778-18.4,26.067-22.522,42.024c-33.008,2.256-59.173,29.831-59.173,63.402  c0,35.042,28.509,63.551,63.55,63.551h147.988C389.533,275.969,359.559,295.615,325.665,295.615z M435.475,230.549h-21.164  c-0.039,0-0.076,0-0.115,0h-158.97c-26.647,0-48.326-21.679-48.326-48.327s21.678-48.327,48.326-48.327  c0.35,0,0.697,0.013,1.043,0.025l0.447,0.015c3.719,0.102,6.997-2.494,7.709-6.159c7.838-40.398,43.441-69.72,84.659-69.72  c32.025,0,61.245,17.599,76.257,45.929c1.382,2.61,4.148,4.184,7.097,4.039c1.067-0.052,2.059-0.077,3.036-0.077  c33.801,0,61.301,27.499,61.301,61.301S469.276,230.549,435.475,230.549z"/>
<g>
</g>
<g>
</g>
<g>
</g>
<g>
</g>
<g>
</g>
<g>
</g>
<g>
</g>
<g>
</g>
<g>
</g>
<g>
</g>
<g>
</g>
<g>
</g>
<g>
</g>
<g>
</g>
<g>
</g>
</svg>
