<?xml version="1.0" encoding="iso-8859-1"?>
<!-- Generator: Adobe Illustrator 19.0.0, SVG Export Plug-In . SVG Version: 6.00 Build 0)  -->
<svg xmlns="http://www.w3.org/2000/svg" xmlns:xlink="http://www.w3.org/1999/xlink" version="1.1" id="Layer_1" x="0px" y="0px" viewBox="0 0 511.999 511.999" style="enable-background:new 0 0 511.999 511.999;" xml:space="preserve">
<path style="fill:#3E3B43;" d="M95.967,236.813l23.27,21.978l-43.822,41.391L95.967,236.813z M130.306,269.247l48.989,46.272  l-48.989,45.474l-48.989-45.474L130.306,269.247z M184.907,299.909l-43.533-41.117l23.117-21.834L184.907,299.909z M130.205,131.246  l29.095,89.706l-28.994,27.385l-29.147-27.53L130.205,131.246z M23.554,460.084l42.084-129.757l4.604-4.348l48.892,45.384  L23.554,460.084z M190.369,325.979l4.314,4.075l42.086,129.764l-95.292-88.454L190.369,325.979z"/>
<rect x="310.868" y="383.011" style="fill:#52A2E7;" width="33.971" height="107.055"/>
<rect x="392.193" y="288.299" style="fill:#4675CF;" width="33.971" height="201.767"/>
<rect x="470.427" y="202.86" style="fill:#3C66B1;" width="33.971" height="287.206"/>
<circle style="fill:#ACAAB1;" cx="130.21" cy="64.269" r="42.339"/>
<path style="opacity:0.38;fill:#2F2D30;enable-background:new    ;" d="M156.287,64.32c0,20.593-14.704,37.745-34.185,41.546  c2.639,0.515,5.364,0.792,8.154,0.792c23.383,0,42.339-18.956,42.339-42.339s-18.956-42.339-42.339-42.339  c-2.79,0-5.514,0.278-8.154,0.792C141.582,26.576,156.287,43.728,156.287,64.32z"/>
<path d="M344.84,375.408h-33.971c-4.197,0-7.6,3.403-7.6,7.6v107.059c0,4.197,3.403,7.6,7.6,7.6h33.971c4.197,0,7.6-3.403,7.6-7.6  V383.008C352.44,378.81,349.037,375.408,344.84,375.408z M337.24,482.467h-18.77v-91.858h18.77V482.467z"/>
<path d="M426.164,280.701h-33.971c-4.197,0-7.6,3.403-7.6,7.6v201.766c0,4.197,3.403,7.6,7.6,7.6h33.97c4.197,0,7.6-3.403,7.6-7.6  V288.302C433.764,284.104,430.361,280.701,426.164,280.701z M418.563,482.467h-18.77V295.902h18.769v186.565H418.563z"/>
<path d="M504.399,195.26h-33.971c-4.197,0-7.6,3.403-7.6,7.6v287.207c0,4.197,3.403,7.6,7.6,7.6h33.971c4.197,0,7.6-3.403,7.6-7.6  V202.86C511.999,198.663,508.596,195.26,504.399,195.26z M496.798,482.467h-18.77V210.461h18.77V482.467z"/>
<path d="M259.249,489.599c0.071-0.102,0.143-0.203,0.209-0.308c0.077-0.123,0.145-0.249,0.215-0.375  c0.048-0.087,0.097-0.172,0.142-0.261c0.068-0.136,0.127-0.273,0.185-0.411c0.037-0.088,0.077-0.174,0.11-0.264  c0.051-0.134,0.094-0.269,0.138-0.404c0.032-0.101,0.066-0.203,0.094-0.306c0.033-0.122,0.06-0.243,0.086-0.366  c0.027-0.123,0.055-0.244,0.076-0.369c0.018-0.105,0.029-0.211,0.044-0.317c0.018-0.141,0.035-0.283,0.046-0.425  c0.006-0.095,0.008-0.191,0.01-0.286c0.005-0.15,0.009-0.301,0.005-0.452c-0.003-0.099-0.012-0.198-0.018-0.296  c-0.01-0.144-0.018-0.287-0.036-0.431c-0.015-0.124-0.039-0.245-0.06-0.368c-0.02-0.117-0.037-0.233-0.064-0.35  c-0.037-0.168-0.086-0.334-0.135-0.5c-0.018-0.063-0.03-0.127-0.051-0.188l-0.022-0.069c-0.004-0.01-0.007-0.021-0.01-0.032  l-51.667-159.303c-0.005-0.017-0.011-0.033-0.016-0.051l-32.803-101.139c-0.102-1.104-0.443-2.188-1.029-3.173l-34.371-105.977  c22.701-4.691,39.818-24.837,39.818-48.907c0-27.537-22.402-49.939-49.939-49.939S80.265,36.734,80.265,64.271  c0,24.07,17.117,44.215,39.818,48.907L0.367,482.302c-0.281,0.867-0.389,1.746-0.359,2.607c-0.092,1.968,0.573,3.969,2.019,5.528  c1.498,1.613,3.532,2.429,5.573,2.429c1.85,0,3.706-0.672,5.169-2.03l117.537-109.104l117.536,109.104  c0.22,0.204,0.45,0.387,0.686,0.559c0.053,0.038,0.106,0.073,0.16,0.11c0.29,0.202,0.587,0.385,0.896,0.541  c0.003,0.002,0.006,0.004,0.009,0.005c0.323,0.163,0.656,0.295,0.994,0.408c0.056,0.019,0.11,0.037,0.166,0.056  c0.328,0.102,0.661,0.183,0.998,0.239c0.066,0.011,0.133,0.018,0.199,0.027c0.333,0.047,0.668,0.077,1.003,0.079  c0.019,0,0.038,0.005,0.058,0.005c0.023,0,0.048-0.005,0.071-0.005c0.32-0.003,0.64-0.031,0.959-0.075  c0.087-0.012,0.174-0.024,0.261-0.04c0.349-0.06,0.693-0.139,1.032-0.247c0.008-0.002,0.015-0.003,0.023-0.005  c0.076-0.024,0.146-0.058,0.22-0.084c0.159-0.057,0.319-0.113,0.475-0.181c0.103-0.046,0.202-0.098,0.302-0.148  c0.128-0.063,0.256-0.121,0.38-0.191c0.155-0.087,0.303-0.184,0.45-0.282c0.064-0.043,0.131-0.078,0.194-0.123  c0.434-0.304,0.828-0.651,1.183-1.031c0.007-0.007,0.014-0.013,0.021-0.02c0.045-0.049,0.082-0.1,0.126-0.15  c0.115-0.13,0.228-0.259,0.332-0.396C259.116,489.796,259.181,489.696,259.249,489.599z M95.967,236.813l23.27,21.978  l-43.822,41.391L95.967,236.813z M184.907,299.909l-43.533-41.117l23.117-21.834L184.907,299.909z M130.306,248.337l-29.147-27.53  l29.047-89.561l29.095,89.706L130.306,248.337z M130.306,269.247l48.989,46.272l-48.989,45.474l-48.989-45.474L130.306,269.247z   M95.466,64.271c0-19.155,15.583-34.738,34.738-34.738s34.738,15.583,34.738,34.738s-15.583,34.738-34.738,34.738  S95.466,83.426,95.466,64.271z M23.554,460.084l42.084-129.757l4.604-4.348l48.892,45.384L23.554,460.084z M190.369,325.979  l4.314,4.075l42.086,129.764l-95.292-88.454L190.369,325.979z"/>
<g>
</g>
<g>
</g>
<g>
</g>
<g>
</g>
<g>
</g>
<g>
</g>
<g>
</g>
<g>
</g>
<g>
</g>
<g>
</g>
<g>
</g>
<g>
</g>
<g>
</g>
<g>
</g>
<g>
</g>
</svg>
