<?xml version="1.0" encoding="iso-8859-1"?>
<!-- Generator: Adobe Illustrator 19.0.0, SVG Export Plug-In . SVG Version: 6.00 Build 0)  -->
<svg xmlns="http://www.w3.org/2000/svg" xmlns:xlink="http://www.w3.org/1999/xlink" version="1.1" id="Layer_1" x="0px" y="0px" viewBox="0 0 511.999 511.999" style="enable-background:new 0 0 511.999 511.999;" xml:space="preserve">
<g style="opacity:0.32;">
	<path style="fill:#3E3B43;" d="M352.449,504.395H157.823c-0.56,0-1.014-0.454-1.014-1.014v-19.259c0-0.56,0.454-1.014,1.014-1.014   h194.625c0.56,0,1.014,0.454,1.014,1.014v19.259C353.463,503.942,353.008,504.395,352.449,504.395z"/>
</g>
<g>
	<polygon style="fill:#3E3B43;" points="213.437,307.487 180.665,304.959 207.809,257.944 236.307,267.874  "/>
	<polygon style="fill:#3E3B43;" points="292.455,309.82 323.88,304.959 298.084,260.279 268.733,268.732  "/>
</g>
<g>
	<polygon style="fill:#2F2D30;" points="207.833,258.055 194.26,281.562 228.491,281.562 236.33,267.984  "/>
	<polygon style="fill:#2F2D30;" points="298.107,260.39 268.756,268.841 276.1,281.562 310.332,281.562  "/>
</g>
<path style="fill:#3C66B1;" d="M255.21,175.161c-4.199,0-7.604-3.821-7.604-8.535v-24.622c0-4.713,3.405-8.535,7.604-8.535  c4.199,0,7.604,3.821,7.604,8.535v24.622C262.814,171.34,259.409,175.161,255.21,175.161z"/>
<g>
	<rect x="174.952" y="361.778" style="fill:#3E3B43;" width="29.645" height="47.986"/>
	<rect x="305.133" y="361.778" style="fill:#3E3B43;" width="29.645" height="47.986"/>
	<rect x="240.042" y="361.778" style="fill:#3E3B43;" width="29.645" height="47.986"/>
</g>
<circle style="fill:#52A2E7;" cx="255.21" cy="133.465" r="12.152"/>
<path style="fill:#ACAAB1;" d="M347.691,167.557c6.216,0,11.048,5.455,10.357,11.632c-5.781,51.677-49.618,91.852-102.838,91.852  s-97.058-40.176-102.838-91.852c-0.691-6.178,4.141-11.632,10.357-11.632L347.691,167.557L347.691,167.557z"/>
<path style="opacity:0.2;fill:#3E3B43;enable-background:new    ;" d="M347.691,167.557h-36.687c6.216,0,11.048,5.455,10.357,11.632  c-5.101,45.598-39.833,82.234-84.495,90.224c5.954,1.066,12.082,1.628,18.344,1.628c53.22,0,97.058-40.176,102.838-91.852  C358.739,173.011,353.907,167.557,347.691,167.557z"/>
<g>
	<path style="fill:#D7D5D9;" d="M352.449,504.395H157.823c-0.56,0-1.014-0.454-1.014-1.014v-98.846c0-0.56,0.454-1.014,1.014-1.014   h194.625c0.56,0,1.014,0.454,1.014,1.014v98.846C353.463,503.942,353.008,504.395,352.449,504.395z"/>
	<path style="fill:#D7D5D9;" d="M352.449,369.499H157.823c-0.56,0-1.014-0.454-1.014-1.014v-27.675c0-0.56,0.454-1.014,1.014-1.014   h194.625c0.56,0,1.014,0.454,1.014,1.014v27.675C353.463,369.045,353.008,369.499,352.449,369.499z"/>
	<path style="fill:#D7D5D9;" d="M385.531,339.797H126.467c-1.615,0-2.936-1.321-2.936-2.936v-30.888   c0-0.558,0.456-1.014,1.014-1.014h262.909c0.558,0,1.014,0.456,1.014,1.014v30.888   C388.467,338.476,387.146,339.797,385.531,339.797z"/>
</g>
<g style="opacity:0.25;">
	<path style="fill:#3E3B43;" d="M352.449,352.651H157.823c-0.56,0-1.014-0.454-1.014-1.014v-10.827c0-0.56,0.454-1.014,1.014-1.014   h194.625c0.56,0,1.014,0.454,1.014,1.014v10.827C353.463,352.197,353.008,352.651,352.449,352.651z"/>
</g>
<g>
	<rect x="174.952" y="369.494" style="fill:#2F2D30;" width="29.645" height="12.898"/>
	<rect x="305.133" y="369.494" style="fill:#2F2D30;" width="29.645" height="12.898"/>
	<rect x="240.042" y="369.494" style="fill:#2F2D30;" width="29.645" height="12.898"/>
</g>
<path d="M387.453,297.355H328.27l-18.905-32.745c30.395-16.947,52.126-47.802,56.239-84.576c0.571-5.108-1.069-10.236-4.499-14.071  c-3.417-3.82-8.306-6.01-13.415-6.01h-84.877v-8.254c7.13-2.985,12.152-10.03,12.152-18.23c0-10.894-8.863-19.756-19.756-19.756  c-10.893,0-19.756,8.863-19.756,19.756c0,8.2,5.023,15.246,12.152,18.23v8.254h-84.877c-5.109,0-9.999,2.191-13.414,6.01  c-3.43,3.835-5.069,8.964-4.499,14.071c3.913,34.979,23.767,64.604,51.854,81.997l-20.394,35.323h-51.731  c-4.752,0-8.618,3.866-8.618,8.618v30.888c0,5.811,4.729,10.54,10.54,10.54h22.739v21.083c0,4.752,3.866,8.618,8.618,8.618h9.526  v18.815h-9.526c-4.752,0-8.618,3.866-8.618,8.618v98.846c0,4.752,3.866,8.618,8.618,8.618H352.45c4.752,0,8.618-3.866,8.618-8.618  v-98.846c0-4.752-3.866-8.618-8.618-8.618h-10.068v-18.815h10.067c4.752,0,8.618-3.866,8.618-8.618v-21.083h24.465  c5.811,0,10.54-4.729,10.54-10.54v-30.888C396.071,301.221,392.206,297.355,387.453,297.355z M310.71,297.355h-16.67l-12.579-21.788  l0.8-0.239c3.341-0.833,6.623-1.818,9.84-2.946l3.574-1.071L310.71,297.355z M255.21,128.92c2.508,0,4.548,2.041,4.548,4.548  c0,2.507-2.041,4.548-4.548,4.548c-2.507,0-4.548-2.04-4.548-4.548C250.661,130.96,252.701,128.92,255.21,128.92z M159.928,178.343  c-0.125-1.111,0.398-1.882,0.72-2.242c0.314-0.352,1.002-0.941,2.079-0.941h184.963c1.078,0,1.765,0.589,2.079,0.941  c0.322,0.36,0.845,1.131,0.72,2.242c-4.191,37.471-29.593,67.806-63.465,79.682l-8.455,2.532c-7.492,1.872-15.315,2.88-23.361,2.88  C206.317,263.437,165.355,226.855,159.928,178.343z M276.479,297.355h-48.412l11.437-19.81c5.136,0.726,10.38,1.101,15.705,1.101  c3.436,0,6.838-0.159,10.2-0.464L276.479,297.355z M209.556,270.126l13.795,4.982l-12.845,22.247h-16.67L209.556,270.126z   M345.859,411.126v85.666H164.414v-85.666H345.859z M182.558,395.839v-18.736h14.437v18.736H182.558z M212.203,395.918v-18.815  h20.236v18.815H212.203z M247.647,395.839v-18.736h14.436v18.736H247.647z M277.292,395.918v-18.815h20.237v18.815H277.292z   M312.737,395.839v-18.736h14.438v18.736H312.737z M345.859,361.895h-11.081h-29.646h-35.445h-29.644h-35.444h-29.645h-10.54  v-14.493h181.445V361.895z M380.863,332.193h-28.415H157.824h-26.689v-19.63h49.53h34.231h74.752h34.231h56.983V332.193z"/>
<path d="M254.864,64.595c-9.336,0-18.117,3.629-24.731,10.219c-6.63,6.606-10.29,15.399-10.306,24.759  c-0.007,4.199,3.391,7.61,7.591,7.617c0.004,0,0.009,0,0.014,0c4.193,0,7.596-3.395,7.604-7.591  c0.009-5.297,2.08-10.274,5.833-14.013c3.743-3.731,8.713-5.784,13.996-5.784c0.012,0,0.024,0,0.036,0  c5.297,0.009,10.274,2.08,14.013,5.833c3.739,3.752,5.793,8.735,5.784,14.032c-0.007,4.199,3.391,7.61,7.591,7.617  c0.004,0,0.009,0,0.014,0c4.193,0,7.596-3.395,7.604-7.591c0.016-9.359-3.612-18.164-10.219-24.794  c-6.606-6.63-15.399-10.29-24.759-10.306C254.906,64.595,254.885,64.595,254.864,64.595z"/>
<path d="M306.767,99.668c-0.007,4.199,3.391,7.61,7.591,7.617c0.004,0,0.009,0,0.014,0c4.193,0,7.596-3.395,7.604-7.591  c0.031-17.926-6.92-34.791-19.573-47.489c-12.653-12.698-29.493-19.708-47.42-19.739c-0.041,0-0.08,0-0.121,0  c-17.881,0-34.699,6.949-47.368,19.573c-12.698,12.653-19.708,29.493-19.739,47.42c-0.007,4.199,3.391,7.61,7.591,7.617  c0.004,0,0.009,0,0.014,0c4.193,0,7.596-3.395,7.604-7.591c0.024-13.864,5.445-26.888,15.266-36.674  c9.799-9.764,22.805-15.137,36.634-15.137c0.03,0,0.063,0,0.093,0c13.864,0.024,26.889,5.445,36.674,15.266  C301.417,72.761,306.791,85.805,306.767,99.668z"/>
<path d="M162.907,106.963c0.004,0,0.009,0,0.014,0c4.193,0,7.596-3.395,7.604-7.591c0.081-46.441,37.886-84.164,84.31-84.164  c0.048,0,0.101,0,0.149,0c46.49,0.082,84.246,37.97,84.164,84.46c-0.007,4.199,3.391,7.61,7.591,7.617c0.004,0,0.009,0,0.014,0  c4.193,0,7.596-3.395,7.604-7.591c0.047-26.583-10.261-51.593-29.025-70.422S281.595,0.047,255.011,0c-0.061,0-0.117,0-0.176,0  c-54.792,0-99.422,44.531-99.518,99.346C155.309,103.545,158.708,106.956,162.907,106.963z"/>
<g>
</g>
<g>
</g>
<g>
</g>
<g>
</g>
<g>
</g>
<g>
</g>
<g>
</g>
<g>
</g>
<g>
</g>
<g>
</g>
<g>
</g>
<g>
</g>
<g>
</g>
<g>
</g>
<g>
</g>
</svg>
