<?xml version="1.0" encoding="iso-8859-1"?>
<!-- Generator: Adobe Illustrator 19.0.0, SVG Export Plug-In . SVG Version: 6.00 Build 0)  -->
<svg xmlns="http://www.w3.org/2000/svg" xmlns:xlink="http://www.w3.org/1999/xlink" version="1.1" id="Layer_1" x="0px" y="0px" viewBox="0 0 512 512" style="enable-background:new 0 0 512 512;" xml:space="preserve">
<rect x="221.529" y="351.303" style="fill:#2F2D30;" width="48.665" height="94.796"/>
<rect x="7.604" y="65.901" style="fill:#3E3B43;" width="496.792" height="299.272"/>
<rect x="7.604" y="89.767" style="fill:#DFDFE2;" width="496.792" height="250.474"/>
<line style="fill:none;stroke:#000000;stroke-width:15;stroke-linecap:round;stroke-linejoin:round;stroke-miterlimit:10;" x1="170.836" y1="446.099" x2="321.901" y2="446.099"/>
<path style="fill:#FF0C38;" d="M200.748,172.929h-9.197h-34.399c-13.941,0-25.347,11.406-25.347,25.347v25.343  c0,13.941,11.406,25.347,25.347,25.347h43.596c13.941,0,25.347-11.406,25.347-25.347l0,0c0-8.184,6.635-14.819,14.819-14.819h6.247  v-35.871H200.748z"/>
<path style="fill:#4675CF;" d="M334.577,172.929h-19.001h-24.595H247.16v35.871h3.656c8.184,0,14.819,6.635,14.819,14.819l0,0  c0,13.941,11.406,25.347,25.347,25.347h43.596c13.941,0,25.347-11.406,25.347-25.347v-25.343  C359.924,184.335,348.518,172.929,334.577,172.929z"/>
<polygon style="opacity:0.35;fill:#FFFFFF;enable-background:new    ;" points="168.264,340.24 40.01,340.24 334.03,89.764   462.284,89.764 "/>
<rect x="221.529" y="365.173" width="48.665" height="25.152"/>
<g>
	<rect x="476.119" y="65.901" style="opacity:0.2;fill:#2F2D30;enable-background:new    ;" width="28.28" height="299.272"/>
	<rect x="7.604" y="65.901" style="opacity:0.2;fill:#2F2D30;enable-background:new    ;" width="28.28" height="299.272"/>
</g>
<path d="M504.396,58.297H7.604C3.405,58.297,0,61.702,0,65.901v38.682v220.838v39.745c0,4.199,3.405,7.604,7.604,7.604h206.324  v65.725h-43.089c-4.199,0-7.604,3.405-7.604,7.604c0,4.199,3.405,7.604,7.604,7.604h50.693h48.665h51.707  c4.199,0,7.604-3.405,7.604-7.604c0-4.199-3.405-7.604-7.604-7.604h-44.103v-65.724h226.595c4.199,0,7.604-3.405,7.604-7.604  v-39.745V104.583V65.901C512,61.702,508.595,58.297,504.396,58.297z M496.792,73.505v9.853c-2.266-0.773-4.69-1.197-7.215-1.197  H22.423c-2.524,0-4.949,0.425-7.215,1.197v-9.853H496.792z M496.792,325.422c0,3.978-3.236,7.215-7.215,7.215H22.423  c-3.978,0-7.215-3.236-7.215-7.215V104.583c0-3.978,3.236-7.215,7.215-7.215h467.155c3.978,0,7.215,3.236,7.215,7.215V325.422z   M262.593,438.495h-33.457v-65.724h33.457V438.495z M270.197,357.564h-48.665H15.208v-10.917c2.266,0.773,4.691,1.197,7.215,1.197  h467.155c2.524,0,4.949-0.425,7.215-1.197v10.917H270.197z"/>
<path d="M334.577,165.766h-13.356c-0.002,0-0.003,0-0.005,0h-91.03c-0.004,0-0.009,0-0.013,0h-45.222c-0.002,0-0.003,0-0.005,0  h-27.793c-18.168,0-32.951,14.782-32.951,32.951v25.343c0,16.885,12.769,30.837,29.157,32.725c0.584,0.144,1.188,0.226,1.808,0.226  c0.172,0,0.348-0.026,0.521-0.039c0.486,0.021,0.973,0.038,1.465,0.038h43.596c18.168,0,32.951-14.782,32.951-32.95  c0-3.978,3.236-7.215,7.215-7.215h9.904c3.978,0,7.215,3.236,7.215,7.215c0,18.168,14.782,32.95,32.951,32.95h0.433  c0.007,0,0.014,0.001,0.021,0.001c0.004,0,0.009-0.001,0.013-0.001h43.128c18.168,0,32.951-14.782,32.951-32.95v-25.344  C367.528,180.548,352.747,165.766,334.577,165.766z M157.152,180.974h9.662c-4.179,4.251-8.977,9.144-13.752,14.038  c-5.326,5.459-9.882,10.161-13.653,14.089v-10.384C139.409,188.934,147.369,180.974,157.152,180.974z M140.492,230.103  c6.679-7.353,27.87-29.098,47.67-49.129h23.465c-6.893,6.832-15.704,15.585-24.454,24.338  c-10.924,10.926-19.622,19.717-25.853,26.126c-3.733,3.84-6.625,6.873-8.597,9.016c-0.195,0.211-0.383,0.417-0.569,0.619  C146.74,239.48,142.409,235.371,140.492,230.103z M250.817,201.637h-9.904c-12.364,0-22.423,10.059-22.423,22.423  c0,9.783-7.96,17.743-17.743,17.743h-28.302c14.852-15.248,41.568-41.846,60.801-60.829h69.838  c-4.179,4.251-8.977,9.144-13.752,14.038c-7.705,7.899-13.842,14.255-18.24,18.891c-0.068,0.071-0.125,0.132-0.192,0.202  C267.228,206.723,259.606,201.637,250.817,201.637z M276.038,228.547c0.014-0.427-0.007-0.861-0.067-1.298  C276.033,227.706,276.052,228.14,276.038,228.547z M275.121,231.966c3.702-4.474,27.361-28.788,49.31-50.992h10.146  c3.752,0,7.23,1.178,10.099,3.173c-6.069,6.003-16.46,16.305-26.755,26.622c-9.328,9.348-16.754,16.881-22.074,22.391  c-3.529,3.655-6.078,6.298-7.906,8.361C282.315,240.545,277.599,236.916,275.121,231.966z M352.32,224.06  c0,9.783-7.96,17.743-17.743,17.743h-25.933c10.478-10.776,27.086-27.413,43.64-43.795c0.009,0.237,0.035,0.469,0.035,0.709V224.06z  "/>
<g>
</g>
<g>
</g>
<g>
</g>
<g>
</g>
<g>
</g>
<g>
</g>
<g>
</g>
<g>
</g>
<g>
</g>
<g>
</g>
<g>
</g>
<g>
</g>
<g>
</g>
<g>
</g>
<g>
</g>
</svg>
