<?xml version="1.0" encoding="iso-8859-1"?>
<!-- Generator: Adobe Illustrator 19.0.0, SVG Export Plug-In . SVG Version: 6.00 Build 0)  -->
<svg xmlns="http://www.w3.org/2000/svg" xmlns:xlink="http://www.w3.org/1999/xlink" version="1.1" id="Layer_1" x="0px" y="0px" viewBox="0 0 512.001 512.001" style="enable-background:new 0 0 512.001 512.001;" xml:space="preserve">
<g>
	<path style="fill:#ACAAB1;" d="M237.967,105.097l16.099-62.271c0.516-1.998,3.354-1.998,3.87,0l16.099,62.271H237.967z"/>
	<circle style="fill:#ACAAB1;" cx="255.998" cy="29.241" r="14.803"/>
</g>
<g>
	<polygon style="fill:#3E3B43;" points="242.896,86.023 237.965,105.097 274.033,105.097 269.102,86.023  "/>
	<rect x="228.756" y="455.464" style="fill:#3E3B43;" width="54.951" height="42.097"/>
</g>
<rect x="345.836" y="240.72" style="fill:#FFE477;" width="158.567" height="166.85"/>
<rect x="225.167" y="169.679" style="fill:#3E3B43;" width="61.795" height="44.152"/>
<path style="fill:#ACAAB1;" d="M294.336,470.142h-76.673c-1.006,0-1.822-0.816-1.822-1.822V206.836c0-1.006,0.816-1.822,1.822-1.822  h76.673c1.006,0,1.822,0.816,1.822,1.822V468.32C296.158,469.326,295.343,470.142,294.336,470.142z"/>
<rect x="7.604" y="240.72" style="fill:#FFE477;" width="158.567" height="166.85"/>
<rect x="166.171" y="301.713" style="fill:#57545C;" width="49.676" height="44.853"/>
<path style="fill:#ACAAB1;" d="M336.055,96.093c0,44.181-35.815,79.995-79.995,79.995s-79.995-35.815-79.995-79.995  C176.064,96.093,336.055,96.093,336.055,96.093z"/>
<path style="opacity:0.28;fill:#2F2D30;enable-background:new    ;" d="M317.803,96.093c0,41.093-30.99,74.93-70.87,79.462  c2.997,0.341,6.039,0.533,9.126,0.533c44.181,0,79.995-35.815,79.995-79.995C336.055,96.093,317.803,96.093,317.803,96.093z"/>
<g>
	<rect x="7.604" y="240.72" style="fill:#FFDA44;" width="32.306" height="166.85"/>
	<rect x="71.69" y="240.72" style="fill:#FFDA44;" width="31.783" height="166.85"/>
	<rect x="135.258" y="240.72" style="fill:#FFDA44;" width="30.906" height="166.85"/>
	<rect x="345.836" y="240.72" style="fill:#FFDA44;" width="32.306" height="166.85"/>
	<rect x="409.922" y="240.72" style="fill:#FFDA44;" width="31.783" height="166.85"/>
	<rect x="473.491" y="240.72" style="fill:#FFDA44;" width="30.906" height="166.85"/>
</g>
<rect x="296.157" y="301.713" style="fill:#57545C;" width="49.676" height="44.853"/>
<rect x="253.231" y="328.185" style="fill:#D7D5D9;" width="30.477" height="92.707"/>
<g>
	<rect x="225.167" y="190.341" style="fill:#2F2D30;" width="61.795" height="14.67"/>
	<rect x="201.169" y="301.713" style="fill:#2F2D30;" width="14.67" height="44.853"/>
	<rect x="296.157" y="301.713" style="fill:#2F2D30;" width="14.67" height="44.853"/>
	<rect x="228.756" y="470.145" style="fill:#2F2D30;" width="54.951" height="10.316"/>
</g>
<g style="opacity:0.2;">
	<path style="fill:#2F2D30;" d="M294.41,205.014h-23.23v265.128h23.23c1.006,0,1.822-0.816,1.822-1.822V206.836   C296.232,205.83,295.416,205.014,294.41,205.014z"/>
</g>
<path d="M504.396,233.112H345.834c-4.199,0-7.604,3.405-7.604,7.604v53.393h-34.468v-89.095c0-4.199-3.405-7.604-7.604-7.604h-1.598  v-21.321c0-0.433-0.045-0.855-0.115-1.268c29.114-14.254,49.212-44.186,49.212-78.728c0-4.199-3.405-7.604-7.604-7.604h-56.29  L265.5,49.527c7.618-3.582,12.907-11.327,12.907-20.287c0-12.356-10.052-22.407-22.407-22.407  c-12.355,0-22.407,10.052-22.407,22.407c0,8.96,5.289,16.705,12.907,20.287l-14.264,38.962h-56.174  c-4.199,0-7.604,3.405-7.604,7.604c0,34.542,20.098,64.474,49.213,78.728c-0.07,0.414-0.115,0.834-0.115,1.268v21.321h-1.715  c-4.199,0-7.604,3.405-7.604,7.604v89.095h-34.469v-53.393c0-4.199-3.405-7.604-7.604-7.604H7.604c-4.199,0-7.604,3.405-7.604,7.604  v166.848c0,4.199,3.405,7.604,7.604,7.604h158.562c4.199,0,7.604-3.405,7.604-7.604v-53.393h34.469v115.971  c0,4.199,3.405,7.604,7.604,7.604h5.314v19.818c0,4.199,3.405,7.604,7.604,7.604h54.947c4.199,0,7.604-3.405,7.604-7.604v-19.818  h4.848c4.199,0,7.604-3.405,7.604-7.604V354.171h34.468v53.393c0,4.199,3.405,7.604,7.604,7.604h158.562  c4.199,0,7.604-3.405,7.604-7.604V240.716C512,236.516,508.596,233.112,504.396,233.112z M276.102,489.96h-39.739v-11.443h39.739  V489.96z M416.128,248.32h16.576v151.64h-16.576V248.32z M400.92,399.96h-16.576V248.32h16.576V399.96z M447.911,248.32h16.576  v151.64h-16.576V248.32z M288.554,212.618v89.095v20.613c-1.316-1.091-3.005-1.747-4.848-1.747h-30.473  c-4.199,0-7.604,3.405-7.604,7.604v92.707c0,4.199,3.405,7.604,7.604,7.604h30.473c1.843,0,3.532-0.656,4.848-1.747v35.791h-65.109  v-115.97v-44.855v-89.095h1.715h61.796L288.554,212.618L288.554,212.618z M276.102,335.786v77.499h-15.266v-77.499H276.102z   M256,22.041c3.97,0,7.199,3.23,7.199,7.199S259.97,36.44,256,36.44c-3.969,0-7.199-3.23-7.199-7.199S252.03,22.041,256,22.041z   M256,67.815l7.568,20.674h-15.136L256,67.815z M184.064,103.697h143.99c-3.812,36.356-34.646,64.787-71.995,64.787  S187.877,140.053,184.064,103.697z M232.766,183.692h46.588v13.717h-46.588V183.692z M79.298,248.32h16.575v151.64H79.298V248.32z   M64.09,399.96H47.514V248.32H64.09C64.09,248.32,64.09,399.96,64.09,399.96z M111.08,248.32h16.576v151.64H111.08V248.32z   M15.208,248.32h17.099v151.64H15.208V248.32z M158.562,399.96h-15.699V248.32h15.699v53.393v44.855V399.96z M173.77,338.963  v-29.647h34.469v29.647H173.77z M303.762,338.963v-29.647h34.468v29.647H303.762z M353.438,346.567v-44.855V248.32h15.699v151.64  h-15.699V346.567z M496.792,399.96h-17.099V248.32h17.099V399.96z"/>
<g>
</g>
<g>
</g>
<g>
</g>
<g>
</g>
<g>
</g>
<g>
</g>
<g>
</g>
<g>
</g>
<g>
</g>
<g>
</g>
<g>
</g>
<g>
</g>
<g>
</g>
<g>
</g>
<g>
</g>
</svg>
