<?xml version="1.0" encoding="utf-8"?>
<!-- Generator: Adobe Illustrator 24.0.2, SVG Export Plug-In . SVG Version: 6.00 Build 0)  -->
<svg version="1.1" id="Layer_1" xmlns="http://www.w3.org/2000/svg" xmlns:xlink="http://www.w3.org/1999/xlink" x="0px" y="0px"
	 viewBox="0 0 512 512" enable-background="new 0 0 512 512" xml:space="preserve">
<g>
	<g>
		<g>
			<path fill="#606466" d="M433,383.4c-1.6,0-2.9-1.3-2.9-2.9v-59.2c0-1.6,1.3-2.9,2.9-2.9h8.6l-25-39.1l-25,39.1h8
				c1.6,0,2.9,1.3,2.9,2.9v59.2c0,1.6-1.3,2.9-2.9,2.9c-1.6,0-2.9-1.3-2.9-2.9v-56.3h-10.3c-1.1,0-2-0.6-2.5-1.5
				c-0.5-0.9-0.5-2.1,0.1-2.9l30.3-47.3c1.1-1.7,3.8-1.7,4.9,0l30.3,47.3c0.6,0.9,0.6,2,0.1,2.9c-0.5,0.9-1.5,1.5-2.5,1.5h-10.9
				v56.3C435.8,382.1,434.6,383.4,433,383.4z"/>
		</g>
	</g>
	<g>
		<g>
			<path fill="#606466" d="M468.9,314.6c-1,0-1.9-0.5-2.4-1.3l-30.3-47.3c-0.6-0.9-0.6-2-0.1-2.9c0.5-0.9,1.5-1.5,2.5-1.5H449v-56.3
				c0-1.6,1.3-2.9,2.9-2.9s2.9,1.3,2.9,2.9v59.2c0,1.6-1.3,2.9-2.9,2.9h-8l25,39.1l25-39.1h-8.6c-1.6,0-2.9-1.3-2.9-2.9v-59.2
				c0-1.6,1.3-2.9,2.9-2.9c1.6,0,2.9,1.3,2.9,2.9v56.3h10.9c1.1,0,2,0.6,2.5,1.5c0.5,0.9,0.5,2.1-0.1,2.9l-30.3,47.3
				C470.8,314.1,469.9,314.6,468.9,314.6z"/>
		</g>
	</g>
</g>
<g>
	<g>
		<g>
			<g>
				<g>
					<path fill="#DFDFDF" d="M114.8,186c-1.6,0-2.9-1.3-2.9-2.9v-5.7c0-1.6,1.3-2.9,2.9-2.9c1.6,0,2.9,1.3,2.9,2.9v5.7
						C117.6,184.7,116.4,186,114.8,186z"/>
				</g>
			</g>
		</g>
		<g>
			<g>
				<g>
					<path fill="#DFDFDF" d="M114.8,360c-1.6,0-2.9-1.3-2.9-2.9v-11.6c0-1.6,1.3-2.9,2.9-2.9c1.6,0,2.9,1.3,2.9,2.9v11.6
						C117.6,358.7,116.4,360,114.8,360z M114.8,325.2c-1.6,0-2.9-1.3-2.9-2.9v-11.6c0-1.6,1.3-2.9,2.9-2.9c1.6,0,2.9,1.3,2.9,2.9
						v11.6C117.6,323.9,116.4,325.2,114.8,325.2z M114.8,290.4c-1.6,0-2.9-1.3-2.9-2.9v-11.6c0-1.6,1.3-2.9,2.9-2.9
						c1.6,0,2.9,1.3,2.9,2.9v11.6C117.6,289.1,116.4,290.4,114.8,290.4z M114.8,255.6c-1.6,0-2.9-1.3-2.9-2.9v-11.6
						c0-1.6,1.3-2.9,2.9-2.9c1.6,0,2.9,1.3,2.9,2.9v11.6C117.6,254.3,116.4,255.6,114.8,255.6z M114.8,220.8c-1.6,0-2.9-1.3-2.9-2.9
						v-11.6c0-1.6,1.3-2.9,2.9-2.9c1.6,0,2.9,1.3,2.9,2.9v11.6C117.6,219.5,116.4,220.8,114.8,220.8z"/>
				</g>
			</g>
		</g>
	</g>
	<g>
		<g>
			<g>
				<g>
					<path fill="#DFDFDF" d="M386.9,159.3c-1.6,0-2.9-1.3-2.9-2.9v-5.7c0-1.6,1.3-2.9,2.9-2.9c1.6,0,2.9,1.3,2.9,2.9v5.7
						C389.8,158,388.5,159.3,386.9,159.3z"/>
				</g>
			</g>
		</g>
		<g>
			<g>
				<g>
					<path fill="#DFDFDF" d="M386.9,343.5c-1.6,0-2.9-1.3-2.9-2.9v-12.3c0-1.6,1.3-2.9,2.9-2.9c1.6,0,2.9,1.3,2.9,2.9v12.3
						C389.8,342.2,388.5,343.5,386.9,343.5z M386.9,306.6c-1.6,0-2.9-1.3-2.9-2.9v-12.3c0-1.6,1.3-2.9,2.9-2.9
						c1.6,0,2.9,1.3,2.9,2.9v12.3C389.8,305.4,388.5,306.6,386.9,306.6z M386.9,269.8c-1.6,0-2.9-1.3-2.9-2.9v-12.3
						c0-1.6,1.3-2.9,2.9-2.9c1.6,0,2.9,1.3,2.9,2.9v12.3C389.8,268.5,388.5,269.8,386.9,269.8z M386.9,233c-1.6,0-2.9-1.3-2.9-2.9
						v-12.3c0-1.6,1.3-2.9,2.9-2.9c1.6,0,2.9,1.3,2.9,2.9v12.3C389.8,231.7,388.5,233,386.9,233z M386.9,196.1
						c-1.6,0-2.9-1.3-2.9-2.9V181c0-1.6,1.3-2.9,2.9-2.9c1.6,0,2.9,1.3,2.9,2.9v12.3C389.8,194.9,388.5,196.1,386.9,196.1z"/>
				</g>
			</g>
		</g>
		<g>
			<g>
				<g>
					<path fill="#DFDFDF" d="M386.9,373.8c-1.6,0-2.9-1.3-2.9-2.9v-5.7c0-1.6,1.3-2.9,2.9-2.9c1.6,0,2.9,1.3,2.9,2.9v5.7
						C389.8,372.5,388.5,373.8,386.9,373.8z"/>
				</g>
			</g>
		</g>
	</g>
	<g>
		<g>
			<g>
				<g>
					<path fill="#DFDFDF" d="M466.8,60.5c-1.6,0-2.9-1.3-2.9-2.9V52c0-1.6,1.3-2.9,2.9-2.9c1.6,0,2.9,1.3,2.9,2.9v5.7
						C469.7,59.3,468.4,60.5,466.8,60.5z"/>
				</g>
			</g>
		</g>
		<g>
			<g>
				<g>
					<path fill="#DFDFDF" d="M466.8,244.7c-1.6,0-2.9-1.3-2.9-2.9v-12.3c0-1.6,1.3-2.9,2.9-2.9c1.6,0,2.9,1.3,2.9,2.9v12.3
						C469.7,243.4,468.4,244.7,466.8,244.7z M466.8,207.9c-1.6,0-2.9-1.3-2.9-2.9v-12.3c0-1.6,1.3-2.9,2.9-2.9
						c1.6,0,2.9,1.3,2.9,2.9V205C469.7,206.6,468.4,207.9,466.8,207.9z M466.8,171.1c-1.6,0-2.9-1.3-2.9-2.9v-12.3
						c0-1.6,1.3-2.9,2.9-2.9c1.6,0,2.9,1.3,2.9,2.9v12.3C469.7,169.8,468.4,171.1,466.8,171.1z M466.8,134.2c-1.6,0-2.9-1.3-2.9-2.9
						v-12.3c0-1.6,1.3-2.9,2.9-2.9c1.6,0,2.9,1.3,2.9,2.9v12.3C469.7,132.9,468.4,134.2,466.8,134.2z M466.8,97.4
						c-1.6,0-2.9-1.3-2.9-2.9V82.2c0-1.6,1.3-2.9,2.9-2.9c1.6,0,2.9,1.3,2.9,2.9v12.3C469.7,96.1,468.4,97.4,466.8,97.4z"/>
				</g>
			</g>
		</g>
		<g>
			<g>
				<g>
					<path fill="#DFDFDF" d="M466.8,275c-1.6,0-2.9-1.3-2.9-2.9v-5.7c0-1.6,1.3-2.9,2.9-2.9c1.6,0,2.9,1.3,2.9,2.9v5.7
						C469.7,273.7,468.4,275,466.8,275z"/>
				</g>
			</g>
		</g>
	</g>
	<g>
		<g>
			<g>
				<g>
					<path fill="#DFDFDF" d="M28,343.5c-1.6,0-2.9-1.3-2.9-2.9v-12.3c0-1.6,1.3-2.9,2.9-2.9c1.6,0,2.9,1.3,2.9,2.9v12.3
						C30.9,342.2,29.6,343.5,28,343.5z M28,306.6c-1.6,0-2.9-1.3-2.9-2.9v-12.3c0-1.6,1.3-2.9,2.9-2.9c1.6,0,2.9,1.3,2.9,2.9v12.3
						C30.9,305.4,29.6,306.6,28,306.6z M28,269.8c-1.6,0-2.9-1.3-2.9-2.9v-12.3c0-1.6,1.3-2.9,2.9-2.9c1.6,0,2.9,1.3,2.9,2.9v12.3
						C30.9,268.5,29.6,269.8,28,269.8z"/>
				</g>
			</g>
		</g>
		<g>
			<g>
				<g>
					<path fill="#DFDFDF" d="M28,373.8c-1.6,0-2.9-1.3-2.9-2.9v-5.7c0-1.6,1.3-2.9,2.9-2.9c1.6,0,2.9,1.3,2.9,2.9v5.7
						C30.9,372.5,29.6,373.8,28,373.8z"/>
				</g>
			</g>
		</g>
	</g>
	<g>
		<g>
			<g>
				<g>
					<path fill="#DFDFDF" d="M180.7,223c-1.6,0-2.9-1.3-2.9-2.9v-5.7c0-1.6,1.3-2.9,2.9-2.9c1.6,0,2.9,1.3,2.9,2.9v5.7
						C183.5,221.7,182.3,223,180.7,223z"/>
				</g>
			</g>
		</g>
		<g>
			<g>
				<g>
					<path fill="#DFDFDF" d="M180.7,360.3c-1.6,0-2.9-1.3-2.9-2.9v-11.4c0-1.6,1.3-2.9,2.9-2.9c1.6,0,2.9,1.3,2.9,2.9v11.4
						C183.5,359,182.3,360.3,180.7,360.3z M180.7,325.9c-1.6,0-2.9-1.3-2.9-2.9v-11.4c0-1.6,1.3-2.9,2.9-2.9c1.6,0,2.9,1.3,2.9,2.9
						v11.4C183.5,324.7,182.3,325.9,180.7,325.9z M180.7,291.6c-1.6,0-2.9-1.3-2.9-2.9v-11.4c0-1.6,1.3-2.9,2.9-2.9
						c1.6,0,2.9,1.3,2.9,2.9v11.4C183.5,290.3,182.3,291.6,180.7,291.6z M180.7,257.3c-1.6,0-2.9-1.3-2.9-2.9V243
						c0-1.6,1.3-2.9,2.9-2.9c1.6,0,2.9,1.3,2.9,2.9v11.4C183.5,256,182.3,257.3,180.7,257.3z"/>
				</g>
			</g>
		</g>
	</g>
	<g>
		<g>
			<path fill="#DFDFDF" d="M491,26.8l-51.1,30.1l11.4,9.9l-61.9,71.6l-73.5-54.3c-2.2-1.6-5.3-1.5-7.3,0.4l-126,117.8l-66.1-37
				c-2.2-1.3-5.1-0.9-6.9,1l-82.9,84.5c-2.2,2.3-2.2,5.9,0.1,8.1c1.1,1.1,2.6,1.6,4,1.6c1.5,0,3-0.6,4.1-1.7l79.8-81.4l65.9,36.9
				c2.2,1.2,4.9,0.9,6.7-0.8L312.9,96.1l74,54.6c2.4,1.8,5.8,1.4,7.7-0.9L460,74.3l10.1,8.8L491,26.8z"/>
		</g>
	</g>
	<g>
		<g>
			<path fill="#DFDFDF" d="M132.8,174.6c0,9.9-8,18-18,18c-9.9,0-18-8-18-18c0-9.9,8-18,18-18C124.7,156.6,132.8,164.7,132.8,174.6z
				"/>
		</g>
	</g>
	<g>
		<g>
			<path fill="#DFDFDF" d="M48.8,255.5c0,9.9-8,18-18,18c-9.9,0-18-8-18-18c0-9.9,8-18,18-18C40.8,237.5,48.8,245.6,48.8,255.5z"/>
		</g>
	</g>
	<g>
		<g>
			<path fill="#DFDFDF" d="M201.5,211.5c0,9.9-8,18-18,18c-9.9,0-18-8-18-18c0-9.9,8-18,18-18C193.5,193.5,201.5,201.6,201.5,211.5z
				"/>
		</g>
	</g>
	<g>
		<g>
			<path fill="#DFDFDF" d="M402,143.4c0,9.9-8,18-18,18c-9.9,0-18-8-18-18c0-9.9,8-18,18-18C394,125.4,402,133.5,402,143.4z"/>
		</g>
	</g>
</g>
<g>
	<path fill="#FF916E" d="M275.5,380.5H127c0,0,24.6-108.4,25.5-127.2c0.2-3.7,0.2-7.2,0-10.5c-0.3-4-0.8-7.6-1.7-10.5
		c-5.3-16.8-30.6-72.7-25.2-107.8c5.3-35.2,39.9-91,118.8-91c62.9,0,93,37.4,99.1,46.7c10.8,16.3,19.1,50.8,19.1,64.8
		c0,14-1.5,33.3,8.4,47.7c9.9,14.4,17.5,25.8,15.6,31c-1.8,5-9.7,8.7-17.1,9.4c-0.1,0.4-0.2,0.9-0.3,1.4c-0.2,1.6-0.2,3.3-0.1,5.1
		c0.2,3.2,0.8,6.6,1.2,9.3c0.4,2.4,0.5,4.3,0.1,5.2c-1.1,2.6-7.6,4.9-11.7,5.8c7.3,0.6,10.4,3.2,8.4,7.5c-0.6,1.2-1.6,2.3-2.8,3.2
		c-4.2,3.4-10.9,5.6-11.4,10.5c-0.2,2.9,1.4,7.8,2.5,12.9c1.3,5.8,2,11.9-1.3,15.8c-6.3,7.3-22.7,12.2-39.9,8.2
		c-16.1-3.7-22-5.8-25.8-7.8c-0.3-0.1-0.5-0.3-0.8-0.4c-3.3,7.1-5.7,17.3-6.5,22.4C275.3,368.1,275.5,380.5,275.5,380.5z"/>
</g>
<g>
	<g>
		<path fill="#FCD751" d="M255.9,150.8c0,5.1-4.1,9.2-9.2,9.2c-5.1,0-9.2-4.1-9.2-9.2c0-5.1,4.1-9.2,9.2-9.2
			C251.7,141.6,255.9,145.7,255.9,150.8z"/>
	</g>
</g>
<path fill="#FCD751" d="M309.8,204.4c-0.6,0-1.3-0.2-1.8-0.6c-1.2-1-1.4-2.8-0.5-4.1c2.5-3.1,4.7-6.4,6.7-9.8
	c6.9-11.8,10.5-25.3,10.5-39c0-13.8-3.6-27.3-10.5-39c-6.9-11.9-16.8-21.8-28.6-28.6c-23.6-13.8-54.5-13.7-78,0
	c-5.8,3.3-11.1,7.4-15.9,12.1c-1.1,1.1-3,1.1-4.1,0c-1.1-1.1-1.1-3,0-4.1c5.1-5,10.9-9.4,17.1-13c25.2-14.7,58.5-14.8,83.8,0
	c12.7,7.3,23.3,17.9,30.7,30.7c7.4,12.6,11.3,27.1,11.3,41.9c0,14.8-3.9,29.3-11.3,41.9c-2.1,3.7-4.5,7.2-7.2,10.5
	C311.5,204,310.7,204.4,309.8,204.4z"/>
<path fill="#FCD751" d="M246.7,234.7c-14.7,0-29.2-3.9-42-11.3c-12.7-7.4-23.3-18-30.7-30.7c-7.3-12.7-11.2-27.2-11.2-41.9
	c0-14.7,3.9-29.2,11.2-41.9c0.9-1.6,2-3.3,3-4.8c0.9-1.3,2.7-1.7,4-0.8c1.3,0.9,1.7,2.7,0.8,4c-1,1.5-1.9,3-2.8,4.5
	c-6.8,11.8-10.4,25.3-10.4,39c0,13.7,3.6,27.2,10.4,39c6.9,11.8,16.7,21.7,28.6,28.6c23.8,13.7,54.6,13.7,78.1,0
	c4.1-2.3,7.9-5,11.5-8.1c1.2-1,3-0.9,4.1,0.3c1,1.2,0.9,3-0.3,4.1c-3.8,3.3-8,6.2-12.3,8.7C276,230.8,261.5,234.7,246.7,234.7z"/>
<path fill="#FCD751" d="M246.7,215.4c-11.3,0-22.5-3-32.3-8.6l-0.9-0.5c-1.4-0.8-1.8-2.6-1-4c0.8-1.4,2.6-1.8,4-1l0.8,0.4
	c15.8,9.1,35.8,10.3,52.4,3.1c1.5-0.6,3.2,0.1,3.8,1.5c0.6,1.5-0.1,3.2-1.5,3.8C263.9,213.6,255.4,215.4,246.7,215.4z"/>
<path fill="#FCD751" d="M201.5,195.8c-0.8,0-1.5-0.3-2.1-0.9c-3.3-3.6-6.3-7.6-8.7-11.8c-5.7-9.8-8.7-20.9-8.7-32.3
	c0-11.3,3-22.5,8.7-32.3c5.3-9.2,12.8-17,21.9-22.6c1.3-0.8,3.1-0.4,4,0.9c0.8,1.4,0.4,3.1-0.9,4c-8.3,5.1-15.1,12.3-19.9,20.6
	c-5.2,8.9-7.9,19.1-7.9,29.4c0,10.3,2.7,20.5,7.9,29.4c2.2,3.8,4.9,7.5,7.9,10.7c1.1,1.2,1,3-0.1,4.1
	C203,195.5,202.3,195.8,201.5,195.8z"/>
<path fill="#FCD751" d="M275.5,99.2c-0.5,0-0.9-0.1-1.4-0.3C260.1,91.4,243,90,228,95c-1.5,0.5-3.2-0.3-3.7-1.8
	c-0.5-1.5,0.3-3.2,1.8-3.7c16.5-5.5,35.3-4,50.7,4.2c1.4,0.7,1.9,2.5,1.2,3.9C277.5,98.6,276.5,99.2,275.5,99.2z"/>
<path fill="#FCD751" d="M284.7,202.3c-0.9,0-1.7-0.4-2.3-1.1c-1-1.3-0.8-3.1,0.5-4.1c6-4.7,10.9-10.4,14.7-16.9
	c5.2-8.9,7.9-19.1,7.9-29.4c0-10.3-2.7-20.5-7.9-29.4c-2.8-4.8-6.2-9.2-10.2-13.1c-1.2-1.1-1.2-2.9-0.1-4.1c1.1-1.1,2.9-1.2,4.1-0.1
	c4.4,4.2,8.2,9.1,11.3,14.4c5.7,9.8,8.7,20.9,8.7,32.3c0,11.3-3,22.5-8.7,32.3c-4.1,7.2-9.6,13.4-16.1,18.6
	C285.9,202.1,285.3,202.3,284.7,202.3z"/>
<path fill="#FCD751" d="M205.9,142c-0.3,0-0.5,0-0.8-0.1c-1.5-0.4-2.4-2.1-2-3.6c1-3.5,2.5-6.9,4.3-10.1c3.9-6.9,9.6-12.6,16.6-16.6
	c7.6-4.4,16.6-6.5,25.3-6c1.6,0.1,2.8,1.4,2.7,3c-0.1,1.6-1.2,3-3,2.7c-7.6-0.4-15.4,1.4-22.1,5.3c-6.1,3.5-11.1,8.5-14.4,14.5
	c-1.6,2.8-2.9,5.8-3.8,8.8C208.3,141.2,207.2,142,205.9,142z"/>
<path fill="#FCD751" d="M246.7,196.1c-3.4,0-6.9-0.4-10.2-1.2c-1.6-0.4-2.5-1.9-2.2-3.5c0.4-1.6,1.9-2.5,3.5-2.2
	c9.7,2.2,20,0.7,28.6-4.3c6.1-3.4,11-8.4,14.4-14.4c3.5-6,5.4-12.8,5.4-19.7c0-6.9-1.8-13.7-5.3-19.7c-3.4-6-8.4-11-14.4-14.5
	c-1.4-0.8-1.9-2.6-1.1-3.9c0.8-1.4,2.6-1.9,3.9-1.1c7,4,12.7,9.7,16.6,16.6c4,6.8,6.1,14.6,6.1,22.6c0,7.9-2.1,15.8-6.1,22.6
	c-3.9,6.9-9.6,12.7-16.6,16.6C262.4,194,254.6,196.1,246.7,196.1z"/>
<path fill="#FCD751" d="M222.1,188.3c-0.6,0-1.2-0.2-1.7-0.5c-5.3-3.8-9.8-8.7-13-14.3c-3.1-5.4-5.1-11.3-5.8-17.5
	c-0.2-1.6,1-3,2.5-3.2c1.6-0.2,3,1,3.2,2.5c0.6,5.4,2.3,10.5,5.1,15.3c2.8,4.9,6.7,9.2,11.3,12.5c1.3,0.9,1.6,2.7,0.7,4
	C223.9,187.8,223,188.3,222.1,188.3z"/>
<path fill="#FCD751" d="M246.7,176.8c-4.5,0-9-1.2-13-3.5c-3.9-2.3-7.2-5.6-9.5-9.5c-2.3-4-3.5-8.5-3.5-13c0-4.5,1.2-9,3.5-13
	c2.3-3.9,5.6-7.2,9.5-9.5c8-4.6,18-4.6,26,0c3.9,2.3,7.2,5.6,9.5,9.5c0.5,0.9,1,1.8,1.4,2.7c0.6,1.5,0,3.2-1.5,3.8
	c-1.5,0.6-3.2,0-3.8-1.5c-0.3-0.7-0.7-1.4-1.1-2.1c-1.8-3.1-4.3-5.6-7.4-7.4c-6.3-3.6-14-3.6-20.2,0c-3.1,1.8-5.6,4.3-7.4,7.4
	c-1.8,3.1-2.7,6.6-2.7,10.1c0,3.6,0.9,7,2.7,10.1c1.8,3.1,4.3,5.6,7.4,7.4c6.3,3.6,14,3.6,20.3,0c3.1-1.8,5.6-4.3,7.4-7.4
	c0.8-1.4,2.6-1.9,3.9-1.1c1.4,0.8,1.9,2.6,1.1,3.9c-2.3,4-5.6,7.2-9.5,9.5C255.7,175.6,251.2,176.8,246.7,176.8z"/>
<path fill="#FCD751" d="M217.2,184.2c-0.7,0-1.5-0.3-2-0.8c-1.1-1.1-1.2-2.9-0.1-4.1l13.6-13.9c1.1-1.1,3-1.2,4.1-0.1
	c1.1,1.1,1.2,2.9,0.1,4.1l-13.6,13.9C218.7,183.9,217.9,184.2,217.2,184.2z"/>
<path fill="#FCD751" d="M278.8,181.3c-0.7,0-1.3-0.2-1.9-0.7l-14.6-12.7c-1.2-1-1.3-2.9-0.3-4.1c1.1-1.2,2.9-1.3,4.1-0.3l14.6,12.7
	c1.2,1,1.3,2.9,0.3,4.1C280.4,180.9,279.6,181.3,278.8,181.3z"/>
<path fill="#FCD751" d="M187.9,173.3c-1.2,0-2.4-0.8-2.8-2.1c-0.5-1.5,0.4-3.1,1.9-3.6l18.8-5.6c1.6-0.5,3.1,0.4,3.6,1.9
	c0.5,1.5-0.4,3.1-1.9,3.6l-18.8,5.6C188.5,173.3,188.2,173.3,187.9,173.3z"/>
<path fill="#FCD751" d="M238.3,111.9c-1.4,0-2.6-1-2.8-2.4l-3.4-19.2c-0.3-1.6,0.8-3.1,2.3-3.4c1.5-0.3,3.1,0.8,3.4,2.3l3.4,19.2
	c0.3,1.6-0.8,3.1-2.3,3.4C238.7,111.9,238.5,111.9,238.3,111.9z"/>
<path fill="#FCD751" d="M219.2,230.2c-0.3,0-0.7-0.1-1-0.2c-1.5-0.5-2.3-2.2-1.7-3.7l6.7-18.6c0.5-1.5,2.2-2.3,3.7-1.7
	c1.5,0.5,2.3,2.2,1.7,3.7l-6.7,18.6C221.5,229.5,220.4,230.2,219.2,230.2z"/>
<path fill="#FCD751" d="M178.7,197c-0.9,0-1.8-0.4-2.4-1.3c-0.9-1.3-0.5-3.1,0.8-4l15.4-10.3c1.3-0.9,3.1-0.5,4,0.8
	c0.9,1.3,0.5,3.1-0.8,4l-15.4,10.3C179.8,196.8,179.3,197,178.7,197z"/>
<path fill="#FCD751" d="M260,214c-1.3,0-2.5-0.9-2.8-2.3l-4.2-18.9c-0.3-1.6,0.6-3.1,2.2-3.4c1.6-0.3,3.1,0.6,3.4,2.2l4.2,18.9
	c0.3,1.6-0.6,3.1-2.2,3.4C260.4,214,260.2,214,260,214z"/>
<path fill="#FCD751" d="M300.9,124.9c-1,0-1.9-0.5-2.5-1.4c-0.8-1.4-0.4-3.1,0.9-4l16.8-10.5c1.3-0.8,3.1-0.4,4,0.9
	c0.8,1.4,0.4,3.1-0.9,4l-16.8,10.5C301.9,124.7,301.4,124.9,300.9,124.9z"/>
<path fill="#FCD751" d="M269.8,96.5c-0.4,0-0.8-0.1-1.2-0.2c-1.5-0.6-2.1-2.3-1.5-3.8l7.8-17.9c0.6-1.5,2.4-2.1,3.8-1.5
	c1.5,0.6,2.1,2.3,1.5,3.8l-7.8,17.9C272,95.9,270.9,96.5,269.8,96.5z"/>
<path fill="#FCD751" d="M208.5,105.2c-0.9,0-1.8-0.4-2.3-1.2L195,88.3c-0.9-1.3-0.6-3.1,0.7-4c1.3-0.9,3.1-0.6,4,0.7l11.2,15.6
	c0.9,1.3,0.6,3.1-0.7,4C209.7,105,209.1,105.2,208.5,105.2z"/>
</svg>
